<svg width="1440" height="752" viewBox="0 0 1440 752" fill="none" xmlns="http://www.w3.org/2000/svg">
<g clip-path="url(#clip0_1689_24010)">
<rect width="1441" height="752" fill="url(#paint0_linear_1689_24010)"/>
<g filter="url(#filter0_b_1689_24010)">
<circle cx="693" cy="226" r="35" fill="url(#paint1_linear_1689_24010)" fill-opacity="0.33"/>
</g>
<g filter="url(#filter1_b_1689_24010)">
<circle cx="62.6338" cy="385.391" r="72.9907" transform="rotate(144.51 62.6338 385.391)" fill="url(#paint2_linear_1689_24010)" fill-opacity="0.33"/>
</g>
<g filter="url(#filter2_b_1689_24010)">
<circle cx="1351.5" cy="85.5001" r="48.5" transform="rotate(30.0278 1351.5 85.5001)" fill="url(#paint3_linear_1689_24010)"/>
</g>
<ellipse cx="20.2731" cy="20.2698" rx="20.2731" ry="20.2698" transform="matrix(0.893329 0.449403 -0.450595 0.892729 815.373 191)" fill="#FFB439"/>
<g filter="url(#filter3_d_1689_24010)">
<ellipse cx="20.2731" cy="20.2698" rx="20.2731" ry="20.2698" transform="matrix(0.893329 0.449403 -0.450595 0.892729 815.373 191)" fill="url(#paint4_radial_1689_24010)"/>
<path d="M840.816 226.489C836.23 235.575 825.14 239.232 816.046 234.658C806.953 230.083 803.299 219.009 807.885 209.923C812.471 200.837 823.56 197.18 832.654 201.755C841.748 206.33 845.401 217.404 840.816 226.489Z" stroke="url(#paint5_linear_1689_24010)" stroke-width="3.68316"/>
</g>
<g filter="url(#filter4_d_1689_24010)">
<path d="M829.163 208.457L829.158 208.466C829.144 208.52 829.114 208.578 829.085 208.636L825.551 215.648C825.521 215.682 825.487 215.678 825.448 215.682C825.195 215.676 824.957 215.665 824.709 215.65C824.363 215.634 824.003 215.624 823.657 215.609L822.401 215.561C822.059 215.545 821.717 215.531 821.375 215.519C820.966 215.509 820.552 215.483 820.143 215.472C819.797 215.457 819.446 215.451 819.092 215.431C818.805 215.42 818.522 215.399 818.245 215.394C818.222 215.396 818.198 215.392 818.176 215.384C818.167 215.379 818.167 215.379 818.162 215.364L818.645 215.059C819.572 214.477 820.484 213.9 821.411 213.319C822.396 212.693 823.392 212.073 824.378 211.447C825.29 210.871 826.212 210.298 827.123 209.722C827.787 209.3 828.46 208.883 829.125 208.461C829.143 208.447 829.158 208.442 829.168 208.423L829.178 208.428C829.163 208.432 829.168 208.447 829.163 208.457Z" fill="#FFDD63"/>
<path d="M830.122 221.394L830.126 221.408L828.271 221.534L822.443 221.927C822.422 221.926 822.401 221.927 822.38 221.931C822.351 221.917 822.366 221.888 822.371 221.878L825.444 215.781C825.458 215.752 825.478 215.713 825.503 215.689C825.532 215.655 825.556 215.679 825.58 215.703C825.677 215.825 825.784 215.952 825.88 216.074C826.171 216.44 826.462 216.806 826.757 217.162C827.015 217.475 827.258 217.792 827.514 218.105C827.771 218.417 828.024 218.739 828.281 219.051C828.498 219.319 828.721 219.603 828.939 219.871C829.158 220.139 829.381 220.423 829.598 220.69C829.773 220.901 829.942 221.12 830.117 221.33C830.102 221.359 830.107 221.374 830.122 221.394Z" fill="#FFDD63"/>
<path d="M819.331 227.962C819.326 227.972 819.311 227.977 819.306 227.987L819.296 227.982C819.306 227.962 819.291 227.942 819.291 227.917C819.115 226.768 818.944 225.609 818.768 224.459C818.592 223.286 818.411 222.097 818.235 220.923C818.064 219.788 817.888 218.638 817.716 217.504C817.673 217.202 817.625 216.91 817.582 216.608C817.583 216.583 817.578 216.569 817.573 216.53C817.602 216.544 817.612 216.573 817.616 216.588C818.213 217.51 818.798 218.427 819.394 219.349C820.076 220.413 820.749 221.47 821.432 222.534L821.781 223.075C821.79 223.105 821.78 223.124 821.771 223.143L819.408 227.831C819.384 227.879 819.359 227.928 819.331 227.962Z" fill="#FFDD63"/>
<path d="M818.138 215.382L818.143 215.372C818.522 215.392 818.897 215.398 819.276 215.418C819.768 215.435 820.255 215.461 820.746 215.476C821.116 215.492 821.5 215.503 821.871 215.519C822.421 215.54 822.957 215.565 823.507 215.587C823.876 215.602 824.246 215.618 824.63 215.629C824.893 215.638 825.166 215.654 825.429 215.665C825.453 215.665 825.487 215.67 825.506 215.655C825.516 215.661 825.512 215.67 825.496 215.674L822.384 221.85C822.369 221.879 822.346 221.903 822.355 221.932C822.321 221.952 822.316 221.913 822.311 221.898C822.248 221.805 822.186 221.713 822.127 221.61C820.811 219.557 819.488 217.489 818.171 215.435C818.162 215.416 818.151 215.398 818.137 215.382L818.138 215.382Z" fill="#FFDD63"/>
<path d="M829.514 222.546L829.525 222.551C829.515 222.57 829.486 222.58 829.466 222.594C826.409 224.212 823.346 225.84 820.288 227.458C819.971 227.627 819.645 227.792 819.328 227.961C819.323 227.946 819.328 227.937 819.333 227.927L821.784 223.064C822.314 223.027 822.829 222.994 823.361 222.958C825.406 222.817 827.446 222.687 829.481 222.541C829.486 222.555 829.5 222.551 829.515 222.546L829.514 222.546Z" fill="#FFDD63"/>
<path d="M825.51 215.673L829.108 208.535C829.122 208.506 829.122 208.482 829.157 208.463C829.478 212.733 829.804 216.995 830.115 221.26C830.119 221.299 830.13 221.353 830.119 221.396C830.007 221.28 829.915 221.148 829.819 221.026C829.697 220.879 829.572 220.719 829.45 220.572C829.378 220.474 829.29 220.382 829.218 220.284C829.092 220.124 828.961 219.972 828.835 219.812C828.757 219.723 828.685 219.626 828.612 219.528L828.118 218.913C828.035 218.811 827.953 218.708 827.86 218.601L827.496 218.162C827.418 218.07 827.344 217.976 827.274 217.879L826.78 217.264C826.698 217.161 826.615 217.059 826.523 216.952L826.159 216.512C826.077 216.409 826.004 216.313 825.922 216.209C825.781 216.029 825.64 215.849 825.485 215.673C825.52 215.678 825.51 215.673 825.51 215.673Z" fill="#FFDD63"/>
</g>
<ellipse cx="13.2154" cy="13.2133" rx="13.2154" ry="13.2133" transform="matrix(0.893329 0.449403 -0.450595 0.892729 760.947 284)" fill="#FFB439"/>
<g filter="url(#filter5_d_1689_24010)">
<ellipse cx="13.2154" cy="13.2133" rx="13.2154" ry="13.2133" transform="matrix(0.893329 0.449403 -0.450595 0.892729 760.947 284)" fill="url(#paint6_radial_1689_24010)"/>
<path d="M777.532 307.134C774.543 313.057 767.314 315.441 761.386 312.459C755.458 309.477 753.076 302.258 756.066 296.335C759.055 290.413 766.284 288.029 772.212 291.011C778.14 293.993 780.522 301.212 777.532 307.134Z" stroke="url(#paint7_linear_1689_24010)" stroke-width="2.40094"/>
</g>
<g filter="url(#filter6_d_1689_24010)">
<path d="M769.966 295.379L769.963 295.386C769.953 295.421 769.934 295.459 769.915 295.496L767.611 300.067C767.592 300.089 767.57 300.086 767.545 300.089C767.38 300.085 767.224 300.078 767.063 300.068C766.837 300.058 766.603 300.052 766.377 300.042L765.558 300.01C765.335 300 765.112 299.991 764.889 299.983C764.623 299.977 764.353 299.96 764.086 299.952C763.861 299.942 763.632 299.939 763.401 299.925C763.214 299.918 763.03 299.905 762.849 299.901C762.834 299.903 762.819 299.9 762.804 299.895C762.798 299.892 762.798 299.892 762.795 299.882L763.11 299.683C763.714 299.304 764.309 298.928 764.913 298.549C765.555 298.141 766.204 297.736 766.847 297.329C767.441 296.953 768.042 296.58 768.637 296.204C769.069 295.929 769.508 295.657 769.941 295.382C769.953 295.373 769.963 295.37 769.969 295.357L769.976 295.36C769.966 295.363 769.969 295.373 769.966 295.379Z" fill="#FFDD63"/>
<path d="M770.592 303.813L770.594 303.822L769.385 303.904L765.586 304.16C765.572 304.159 765.558 304.16 765.545 304.163C765.526 304.154 765.535 304.135 765.539 304.128L767.542 300.154C767.551 300.135 767.564 300.11 767.58 300.094C767.599 300.072 767.615 300.088 767.631 300.103C767.694 300.183 767.764 300.266 767.827 300.345C768.016 300.584 768.206 300.822 768.398 301.054C768.566 301.258 768.724 301.465 768.892 301.669C769.059 301.872 769.224 302.082 769.391 302.285C769.533 302.46 769.678 302.645 769.821 302.82C769.963 302.995 770.108 303.18 770.25 303.354C770.364 303.491 770.474 303.635 770.588 303.771C770.579 303.79 770.582 303.8 770.592 303.813Z" fill="#FFDD63"/>
<path d="M763.558 308.094C763.554 308.101 763.545 308.104 763.542 308.11L763.535 308.107C763.542 308.094 763.532 308.081 763.532 308.065C763.417 307.316 763.305 306.561 763.191 305.811C763.076 305.046 762.958 304.271 762.843 303.506C762.732 302.766 762.617 302.017 762.505 301.277C762.477 301.08 762.446 300.89 762.418 300.693C762.418 300.677 762.416 300.667 762.412 300.642C762.431 300.652 762.438 300.67 762.44 300.68C762.829 301.281 763.211 301.879 763.599 302.48C764.044 303.173 764.482 303.863 764.928 304.556L765.155 304.909C765.161 304.928 765.155 304.941 765.148 304.953L763.608 308.009C763.592 308.04 763.576 308.072 763.558 308.094Z" fill="#FFDD63"/>
<path d="M762.779 299.894L762.782 299.887C763.029 299.9 763.274 299.904 763.521 299.917C763.842 299.928 764.159 299.945 764.479 299.955C764.721 299.966 764.971 299.973 765.213 299.983C765.571 299.997 765.92 300.013 766.279 300.027C766.52 300.037 766.76 300.047 767.011 300.054C767.182 300.061 767.361 300.071 767.532 300.078C767.547 300.078 767.57 300.081 767.582 300.072C767.589 300.075 767.586 300.081 767.576 300.084L765.547 304.11C765.537 304.128 765.522 304.144 765.528 304.164C765.506 304.176 765.503 304.151 765.499 304.141C765.458 304.081 765.418 304.02 765.379 303.954C764.521 302.615 763.659 301.267 762.801 299.928C762.795 299.916 762.788 299.904 762.779 299.894L762.779 299.894Z" fill="#FFDD63"/>
<path d="M770.195 304.564L770.202 304.568C770.196 304.58 770.177 304.586 770.164 304.595C768.171 305.65 766.175 306.712 764.181 307.766C763.975 307.876 763.762 307.984 763.555 308.094C763.552 308.084 763.555 308.079 763.558 308.072L765.156 304.902C765.502 304.878 765.838 304.856 766.184 304.833C767.517 304.741 768.847 304.656 770.173 304.561C770.177 304.57 770.186 304.567 770.196 304.564L770.195 304.564Z" fill="#FFDD63"/>
<path d="M767.586 300.083L769.931 295.43C769.94 295.412 769.94 295.396 769.963 295.383C770.172 298.167 770.384 300.945 770.588 303.726C770.59 303.751 770.597 303.786 770.59 303.814C770.517 303.739 770.457 303.653 770.394 303.573C770.315 303.477 770.233 303.373 770.154 303.277C770.107 303.213 770.05 303.153 770.003 303.089C769.92 302.985 769.835 302.886 769.753 302.781C769.702 302.724 769.655 302.66 769.607 302.596L769.285 302.196C769.232 302.129 769.178 302.062 769.118 301.992L768.88 301.706C768.83 301.646 768.781 301.585 768.736 301.521L768.414 301.12C768.36 301.054 768.306 300.987 768.246 300.917L768.009 300.631C767.955 300.563 767.908 300.5 767.854 300.433C767.762 300.316 767.67 300.198 767.569 300.083C767.592 300.087 767.586 300.083 767.586 300.083Z" fill="#FFDD63"/>
</g>
<ellipse cx="13.2148" cy="13.2139" rx="13.2148" ry="13.2139" transform="matrix(0.851345 -0.524607 0.525943 0.85052 789.311 442.428)" fill="#FFB439"/>
<g filter="url(#filter7_d_1689_24010)">
<ellipse cx="13.2148" cy="13.2139" rx="13.2148" ry="13.2139" transform="matrix(0.851345 -0.524607 0.525943 0.85052 789.311 442.428)" fill="url(#paint8_radial_1689_24010)"/>
<path d="M817.739 440.432C821.228 446.075 819.478 453.471 813.829 456.952C808.18 460.433 800.772 458.68 797.282 453.037C793.793 447.394 795.543 439.998 801.192 436.517C806.841 433.036 814.249 434.789 817.739 440.432Z" stroke="url(#paint9_linear_1689_24010)" stroke-width="2.40094"/>
</g>
<g filter="url(#filter8_d_1689_24010)">
<path d="M803.664 440.654L803.668 440.66C803.692 440.687 803.715 440.723 803.737 440.759L806.426 445.114C806.434 445.142 806.421 445.16 806.41 445.183C806.32 445.321 806.233 445.45 806.139 445.582C806.013 445.769 805.884 445.965 805.758 446.152L805.302 446.833C805.177 447.018 805.052 447.203 804.929 447.389C804.784 447.613 804.628 447.834 804.482 448.057C804.356 448.244 804.233 448.437 804.101 448.626C803.996 448.782 803.889 448.932 803.791 449.084C803.784 449.098 803.774 449.11 803.762 449.119C803.756 449.123 803.756 449.123 803.746 449.12L803.742 448.748C803.734 448.035 803.725 447.331 803.719 446.618C803.708 445.857 803.703 445.093 803.692 444.332C803.683 443.629 803.679 442.922 803.671 442.219C803.663 441.706 803.661 441.19 803.653 440.677C803.652 440.662 803.654 440.652 803.647 440.64L803.653 440.636C803.65 440.646 803.66 440.648 803.664 440.654Z" fill="#FFDD63"/>
<path d="M811.178 444.536L811.187 444.539L810.624 445.612L808.853 448.982C808.845 448.994 808.839 449.006 808.834 449.019C808.816 449.03 808.805 449.012 808.801 449.006L806.463 445.219C806.452 445.201 806.437 445.177 806.432 445.155C806.423 445.127 806.445 445.122 806.466 445.117C806.567 445.104 806.674 445.088 806.775 445.076C807.077 445.04 807.38 445.003 807.679 444.961C807.94 444.925 808.199 444.898 808.461 444.862C808.722 444.826 808.987 444.796 809.248 444.759C809.471 444.73 809.705 444.703 809.928 444.673C810.152 444.644 810.385 444.617 810.608 444.587C810.785 444.562 810.965 444.543 811.141 444.517C811.152 444.535 811.162 444.538 811.178 444.536Z" fill="#FFDD63"/>
<path d="M811.144 452.77C811.148 452.776 811.145 452.786 811.149 452.792L811.143 452.796C811.135 452.784 811.119 452.785 811.106 452.776C810.407 452.482 809.705 452.182 809.006 451.887C808.294 451.584 807.572 451.279 806.86 450.977C806.171 450.684 805.472 450.39 804.783 450.098C804.601 450.019 804.422 449.946 804.24 449.866C804.226 449.858 804.217 449.855 804.193 449.845C804.211 449.834 804.231 449.838 804.24 449.841C804.956 449.824 805.665 449.812 806.381 449.796C807.205 449.78 808.022 449.767 808.846 449.751L809.266 449.742C809.285 449.747 809.293 449.759 809.3 449.771L811.097 452.682C811.116 452.712 811.135 452.742 811.144 452.77Z" fill="#FFDD63"/>
<path d="M803.748 449.139L803.745 449.133C803.885 448.93 804.016 448.724 804.157 448.52C804.334 448.252 804.514 447.991 804.691 447.723C804.826 447.523 804.963 447.314 805.098 447.113C805.298 446.815 805.495 446.526 805.694 446.228C805.829 446.028 805.964 445.828 806.101 445.619C806.196 445.476 806.298 445.33 806.394 445.188C806.402 445.174 806.416 445.157 806.415 445.141C806.421 445.137 806.425 445.143 806.422 445.153L808.79 448.989C808.801 449.007 808.807 449.028 808.826 449.033C808.825 449.059 808.802 449.048 808.792 449.046C808.719 449.049 808.646 449.052 808.569 449.05C806.98 449.08 805.379 449.109 803.789 449.139C803.775 449.137 803.761 449.138 803.748 449.14L803.748 449.139Z" fill="#FFDD63"/>
<path d="M811.61 445.267L811.617 445.263C811.624 445.275 811.619 445.295 811.621 445.31C811.476 447.56 811.335 449.816 811.19 452.066C811.176 452.3 811.156 452.537 811.142 452.771C811.132 452.769 811.128 452.763 811.124 452.757L809.26 449.737C809.42 449.43 809.578 449.132 809.739 448.825C810.359 447.641 810.982 446.464 811.596 445.284C811.606 445.286 811.608 445.277 811.611 445.267L811.61 445.267Z" fill="#FFDD63"/>
<path d="M806.426 445.145L803.688 440.712C803.677 440.694 803.664 440.685 803.665 440.66C806.147 441.939 808.626 443.212 811.101 444.495C811.124 444.506 811.158 444.518 811.178 444.539C811.076 444.561 810.971 444.567 810.87 444.579C810.747 444.597 810.615 444.612 810.492 444.629C810.413 444.636 810.332 444.653 810.253 444.66C810.12 444.675 809.992 444.696 809.859 444.711C809.784 444.724 809.705 444.731 809.626 444.739L809.115 444.803C809.03 444.814 808.945 444.825 808.854 444.839L808.486 444.892C808.409 444.904 808.331 444.913 808.253 444.918L807.743 444.983C807.658 444.994 807.573 445.004 807.482 445.019L807.113 445.071C807.028 445.082 806.949 445.089 806.864 445.1C806.716 445.116 806.568 445.133 806.417 445.159C806.432 445.141 806.426 445.145 806.426 445.145Z" fill="#FFDD63"/>
</g>
<circle cx="1319.2" cy="520.466" r="27.0169" transform="rotate(26.7436 1319.2 520.466)" fill="#FFB439"/>
<g filter="url(#filter9_d_1689_24010)">
<circle cx="1319.2" cy="520.466" r="27.0169" transform="rotate(26.7436 1319.2 520.466)" fill="url(#paint10_radial_1689_24010)"/>
<circle cx="1319.2" cy="520.466" r="24.5609" transform="rotate(26.7436 1319.2 520.466)" stroke="url(#paint11_linear_1689_24010)" stroke-width="4.91217"/>
</g>
<g filter="url(#filter10_d_1689_24010)">
<path d="M1325.81 507.466L1325.8 507.479C1325.78 507.551 1325.74 507.629 1325.71 507.705L1320.99 517.055C1320.95 517.099 1320.91 517.094 1320.86 517.1C1320.52 517.092 1320.2 517.077 1319.87 517.057C1319.41 517.036 1318.93 517.022 1318.47 517.002L1316.79 516.937C1316.34 516.915 1315.88 516.897 1315.42 516.881C1314.88 516.867 1314.33 516.833 1313.78 516.818C1313.32 516.797 1312.85 516.79 1312.38 516.762C1312 516.747 1311.62 516.72 1311.25 516.712C1311.22 516.715 1311.19 516.71 1311.16 516.699C1311.14 516.693 1311.14 516.693 1311.14 516.673L1311.78 516.266C1313.02 515.49 1314.24 514.721 1315.47 513.947C1316.79 513.113 1318.11 512.286 1319.43 511.452C1320.64 510.684 1321.87 509.92 1323.09 509.153C1323.97 508.591 1324.87 508.035 1325.76 507.472C1325.78 507.453 1325.8 507.446 1325.82 507.421L1325.83 507.428C1325.81 507.433 1325.82 507.453 1325.81 507.466Z" fill="#FFDD63"/>
<path d="M1327.09 524.719L1327.1 524.738L1324.63 524.905L1316.85 525.426C1316.82 525.425 1316.8 525.427 1316.77 525.432C1316.73 525.413 1316.75 525.374 1316.75 525.361L1320.85 517.232C1320.87 517.193 1320.9 517.142 1320.93 517.109C1320.97 517.064 1321 517.096 1321.03 517.128C1321.16 517.291 1321.31 517.46 1321.43 517.623C1321.82 518.111 1322.21 518.6 1322.6 519.075C1322.95 519.491 1323.27 519.914 1323.61 520.332C1323.96 520.748 1324.29 521.177 1324.64 521.594C1324.93 521.952 1325.22 522.33 1325.52 522.687C1325.81 523.046 1326.1 523.424 1326.4 523.781C1326.63 524.061 1326.85 524.354 1327.09 524.634C1327.07 524.672 1327.07 524.692 1327.09 524.719Z" fill="#FFDD63"/>
<path d="M1312.7 533.474C1312.7 533.487 1312.68 533.493 1312.67 533.506L1312.66 533.5C1312.67 533.473 1312.65 533.447 1312.65 533.414C1312.42 531.882 1312.19 530.336 1311.95 528.802C1311.72 527.238 1311.47 525.652 1311.24 524.087C1311.01 522.573 1310.77 521.04 1310.55 519.527C1310.49 519.124 1310.42 518.734 1310.37 518.331C1310.37 518.298 1310.36 518.279 1310.35 518.228C1310.39 518.247 1310.41 518.285 1310.41 518.305C1311.21 519.535 1311.99 520.758 1312.78 521.988C1313.7 523.406 1314.59 524.817 1315.5 526.237L1315.97 526.958C1315.98 526.997 1315.97 527.023 1315.96 527.049L1312.81 533.299C1312.77 533.363 1312.74 533.428 1312.7 533.474Z" fill="#FFDD63"/>
<path d="M1311.11 516.697L1311.11 516.684C1311.62 516.71 1312.12 516.719 1312.63 516.746C1313.28 516.768 1313.93 516.802 1314.59 516.823C1315.08 516.845 1315.59 516.86 1316.09 516.88C1316.82 516.909 1317.53 516.943 1318.27 516.972C1318.76 516.992 1319.25 517.013 1319.77 517.028C1320.12 517.041 1320.48 517.063 1320.83 517.077C1320.86 517.077 1320.91 517.083 1320.93 517.064C1320.95 517.071 1320.94 517.083 1320.92 517.089L1316.77 525.323C1316.75 525.362 1316.72 525.394 1316.73 525.434C1316.69 525.46 1316.68 525.407 1316.68 525.387C1316.59 525.264 1316.51 525.141 1316.43 525.004C1314.67 522.265 1312.91 519.507 1311.15 516.767C1311.14 516.742 1311.12 516.718 1311.11 516.696L1311.11 516.697Z" fill="#FFDD63"/>
<path d="M1326.28 526.255L1326.3 526.262C1326.29 526.288 1326.25 526.301 1326.22 526.319C1322.14 528.476 1318.06 530.646 1313.98 532.801C1313.56 533.027 1313.12 533.247 1312.7 533.472C1312.69 533.452 1312.7 533.44 1312.71 533.427L1315.97 526.944C1316.68 526.894 1317.37 526.85 1318.08 526.802C1320.8 526.615 1323.53 526.442 1326.24 526.249C1326.25 526.268 1326.27 526.262 1326.29 526.256L1326.28 526.255Z" fill="#FFDD63"/>
<path d="M1320.94 517.088L1325.74 507.571C1325.75 507.533 1325.75 507.5 1325.8 507.474C1326.23 513.17 1326.67 518.853 1327.08 524.541C1327.09 524.593 1327.1 524.665 1327.09 524.722C1326.94 524.568 1326.82 524.391 1326.69 524.229C1326.53 524.033 1326.36 523.819 1326.2 523.623C1326.1 523.492 1325.98 523.369 1325.89 523.239C1325.72 523.025 1325.54 522.823 1325.38 522.609C1325.27 522.491 1325.18 522.361 1325.08 522.23L1324.42 521.41C1324.31 521.273 1324.2 521.137 1324.08 520.994L1323.59 520.408C1323.49 520.286 1323.39 520.16 1323.29 520.03L1322.63 519.21C1322.52 519.073 1322.41 518.937 1322.29 518.794L1321.81 518.208C1321.7 518.07 1321.6 517.941 1321.49 517.804C1321.3 517.563 1321.11 517.322 1320.91 517.088C1320.95 517.095 1320.94 517.088 1320.94 517.088Z" fill="#FFDD63"/>
</g>
<circle cx="1336.64" cy="403.638" r="17.6006" transform="rotate(26.7436 1336.64 403.638)" fill="#FFB439"/>
<g filter="url(#filter11_d_1689_24010)">
<circle cx="1336.64" cy="403.638" r="17.6006" transform="rotate(26.7436 1336.64 403.638)" fill="url(#paint12_radial_1689_24010)"/>
<circle cx="1336.64" cy="403.638" r="16.0005" transform="rotate(26.7436 1336.64 403.638)" stroke="url(#paint13_linear_1689_24010)" stroke-width="3.2001"/>
</g>
<g filter="url(#filter12_d_1689_24010)">
<path d="M1340.94 395.169L1340.94 395.177C1340.93 395.224 1340.9 395.275 1340.87 395.325L1337.81 401.415C1337.78 401.445 1337.75 401.441 1337.72 401.445C1337.5 401.44 1337.29 401.43 1337.07 401.417C1336.77 401.403 1336.46 401.394 1336.16 401.381L1335.07 401.339C1334.77 401.325 1334.47 401.313 1334.18 401.302C1333.82 401.293 1333.46 401.271 1333.11 401.261C1332.81 401.248 1332.5 401.243 1332.19 401.225C1331.94 401.215 1331.7 401.197 1331.46 401.192C1331.44 401.194 1331.42 401.191 1331.4 401.184C1331.39 401.18 1331.39 401.18 1331.38 401.167L1331.81 400.902C1332.61 400.396 1333.4 399.895 1334.21 399.391C1335.06 398.848 1335.93 398.309 1336.79 397.766C1337.58 397.265 1338.38 396.768 1339.17 396.267C1339.75 395.901 1340.33 395.539 1340.91 395.173C1340.93 395.16 1340.94 395.156 1340.95 395.14L1340.96 395.144C1340.94 395.147 1340.95 395.16 1340.94 395.169Z" fill="#FFDD63"/>
<path d="M1341.78 406.408L1341.78 406.421L1340.17 406.53L1335.11 406.87C1335.09 406.868 1335.07 406.87 1335.05 406.873C1335.03 406.861 1335.04 406.836 1335.04 406.827L1337.71 401.531C1337.73 401.506 1337.74 401.472 1337.76 401.451C1337.79 401.422 1337.81 401.443 1337.83 401.463C1337.92 401.57 1338.01 401.68 1338.09 401.786C1338.35 402.104 1338.6 402.422 1338.85 402.732C1339.08 403.003 1339.29 403.279 1339.51 403.551C1339.74 403.822 1339.96 404.101 1340.18 404.373C1340.37 404.606 1340.56 404.852 1340.75 405.085C1340.94 405.319 1341.14 405.565 1341.32 405.797C1341.48 405.98 1341.62 406.171 1341.78 406.353C1341.76 406.378 1341.77 406.391 1341.78 406.408Z" fill="#FFDD63"/>
<path d="M1332.4 412.112C1332.4 412.12 1332.39 412.125 1332.38 412.133L1332.37 412.129C1332.38 412.112 1332.37 412.095 1332.37 412.073C1332.22 411.075 1332.07 410.068 1331.91 409.069C1331.76 408.049 1331.6 407.017 1331.45 405.997C1331.3 405.011 1331.15 404.012 1331 403.026C1330.96 402.764 1330.92 402.51 1330.88 402.247C1330.88 402.226 1330.88 402.213 1330.87 402.18C1330.9 402.192 1330.91 402.217 1330.91 402.23C1331.43 403.032 1331.94 403.828 1332.46 404.629C1333.05 405.554 1333.64 406.473 1334.23 407.397L1334.53 407.867C1334.54 407.893 1334.53 407.91 1334.52 407.926L1332.47 411.998C1332.45 412.04 1332.43 412.082 1332.4 412.112Z" fill="#FFDD63"/>
<path d="M1331.36 401.183L1331.37 401.174C1331.7 401.191 1332.02 401.197 1332.35 401.214C1332.78 401.229 1333.2 401.251 1333.63 401.265C1333.95 401.279 1334.29 401.289 1334.61 401.302C1335.09 401.321 1335.55 401.343 1336.03 401.362C1336.35 401.375 1336.67 401.389 1337.01 401.398C1337.23 401.407 1337.47 401.421 1337.7 401.43C1337.72 401.43 1337.75 401.434 1337.77 401.422C1337.78 401.427 1337.77 401.434 1337.76 401.438L1335.06 406.802C1335.04 406.827 1335.02 406.848 1335.03 406.874C1335 406.891 1335 406.857 1334.99 406.844C1334.94 406.764 1334.88 406.683 1334.83 406.594C1333.69 404.81 1332.54 403.013 1331.39 401.229C1331.39 401.212 1331.38 401.196 1331.36 401.182L1331.36 401.183Z" fill="#FFDD63"/>
<path d="M1341.25 407.409L1341.26 407.414C1341.25 407.431 1341.23 407.439 1341.21 407.451C1338.55 408.856 1335.89 410.27 1333.24 411.674C1332.96 411.821 1332.68 411.964 1332.4 412.111C1332.4 412.098 1332.4 412.09 1332.41 412.082L1334.53 407.858C1335 407.826 1335.44 407.797 1335.91 407.766C1337.68 407.644 1339.45 407.531 1341.22 407.405C1341.23 407.418 1341.24 407.414 1341.25 407.41L1341.25 407.409Z" fill="#FFDD63"/>
<path d="M1337.77 401.437L1340.89 395.237C1340.91 395.212 1340.91 395.19 1340.94 395.174C1341.22 398.884 1341.5 402.587 1341.77 406.292C1341.78 406.326 1341.79 406.373 1341.78 406.41C1341.68 406.31 1341.6 406.195 1341.52 406.089C1341.41 405.961 1341.3 405.822 1341.2 405.694C1341.13 405.609 1341.06 405.529 1340.99 405.444C1340.88 405.305 1340.77 405.173 1340.66 405.033C1340.59 404.957 1340.53 404.872 1340.47 404.787L1340.04 404.253C1339.97 404.164 1339.89 404.075 1339.81 403.981L1339.5 403.6C1339.43 403.52 1339.36 403.438 1339.3 403.354L1338.87 402.819C1338.8 402.73 1338.73 402.641 1338.65 402.548L1338.33 402.166C1338.26 402.077 1338.2 401.993 1338.13 401.903C1338.01 401.746 1337.88 401.59 1337.75 401.437C1337.78 401.441 1337.77 401.437 1337.77 401.437Z" fill="#FFDD63"/>
</g>
<ellipse cx="16.6734" cy="16.6734" rx="16.6734" ry="16.6734" transform="matrix(0.738551 -0.674198 0.675229 0.737608 1189.65 608.483)" fill="#FFB439"/>
<g filter="url(#filter13_d_1689_24010)">
<ellipse cx="16.6734" cy="16.6734" rx="16.6734" ry="16.6734" transform="matrix(0.738551 -0.674198 0.675229 0.737608 1189.65 608.483)" fill="url(#paint14_radial_1689_24010)"/>
<path d="M1224.42 599.32C1230.07 605.495 1229.64 615.077 1223.46 620.721C1217.28 626.366 1207.68 625.935 1202.03 619.76C1196.38 613.585 1196.81 604.003 1202.99 598.359C1209.17 592.715 1218.77 593.145 1224.42 599.32Z" stroke="url(#paint15_linear_1689_24010)" stroke-width="3.02941"/>
</g>
<g filter="url(#filter14_d_1689_24010)">
<path d="M1206.5 602.881L1206.5 602.887C1206.54 602.914 1206.57 602.954 1206.61 602.993L1210.97 607.758C1210.98 607.791 1210.97 607.816 1210.96 607.847C1210.88 608.04 1210.81 608.22 1210.72 608.406C1210.61 608.668 1210.5 608.941 1210.38 609.203L1209.98 610.154C1209.87 610.412 1209.75 610.671 1209.65 610.931C1209.52 611.243 1209.38 611.553 1209.25 611.864C1209.14 612.126 1209.03 612.394 1208.91 612.66C1208.82 612.878 1208.72 613.089 1208.63 613.301C1208.63 613.319 1208.62 613.336 1208.61 613.35C1208.6 613.357 1208.6 613.357 1208.59 613.356L1208.49 612.895C1208.32 612.013 1208.14 611.143 1207.96 610.261C1207.77 609.32 1207.59 608.374 1207.39 607.433C1207.22 606.564 1207.05 605.688 1206.87 604.818C1206.74 604.185 1206.62 603.546 1206.49 602.911C1206.48 602.893 1206.48 602.88 1206.47 602.867L1206.48 602.861C1206.48 602.873 1206.49 602.874 1206.5 602.881Z" fill="#FFDD63"/>
<path d="M1216.72 605.924L1216.73 605.925L1216.29 607.387L1214.88 611.983C1214.88 611.999 1214.87 612.015 1214.87 612.033C1214.85 612.05 1214.83 612.031 1214.82 612.024L1211.04 607.88C1211.02 607.861 1210.99 607.835 1210.98 607.808C1210.97 607.776 1210.99 607.765 1211.02 607.753C1211.14 607.714 1211.27 607.669 1211.39 607.63C1211.76 607.514 1212.12 607.397 1212.48 607.274C1212.8 607.168 1213.11 607.073 1213.43 606.968C1213.74 606.861 1214.07 606.761 1214.38 606.655C1214.65 606.566 1214.93 606.478 1215.2 606.388C1215.47 606.299 1215.76 606.21 1216.03 606.121C1216.24 606.048 1216.46 605.982 1216.67 605.909C1216.69 605.928 1216.7 605.929 1216.72 605.924Z" fill="#FFDD63"/>
<path d="M1218.61 616.138C1218.62 616.145 1218.62 616.157 1218.62 616.164L1218.62 616.17C1218.61 616.157 1218.59 616.162 1218.57 616.155C1217.63 615.955 1216.69 615.748 1215.76 615.548C1214.8 615.34 1213.83 615.132 1212.88 614.924C1211.96 614.724 1211.02 614.524 1210.1 614.324C1209.86 614.269 1209.62 614.221 1209.37 614.165C1209.35 614.158 1209.34 614.157 1209.31 614.149C1209.33 614.132 1209.35 614.132 1209.37 614.133C1210.25 613.944 1211.13 613.762 1212.01 613.573C1213.03 613.359 1214.04 613.151 1215.06 612.937L1215.57 612.826C1215.6 612.828 1215.61 612.842 1215.62 612.854L1218.53 616.04C1218.56 616.073 1218.59 616.106 1218.61 616.138Z" fill="#FFDD63"/>
<path d="M1208.59 613.38L1208.59 613.373C1208.71 613.088 1208.83 612.801 1208.95 612.515C1209.11 612.142 1209.27 611.775 1209.43 611.402C1209.55 611.122 1209.67 610.83 1209.79 610.55C1209.97 610.133 1210.14 609.729 1210.32 609.312C1210.44 609.033 1210.56 608.753 1210.68 608.461C1210.77 608.262 1210.86 608.056 1210.94 607.858C1210.95 607.839 1210.96 607.814 1210.96 607.796C1210.97 607.789 1210.97 607.795 1210.97 607.808L1214.81 612.005C1214.83 612.025 1214.84 612.05 1214.86 612.051C1214.87 612.084 1214.84 612.076 1214.82 612.075C1214.73 612.096 1214.64 612.117 1214.55 612.132C1212.58 612.545 1210.61 612.957 1208.64 613.37C1208.63 613.371 1208.61 613.374 1208.59 613.38L1208.59 613.38Z" fill="#FFDD63"/>
<path d="M1217.43 606.727L1217.44 606.72C1217.45 606.733 1217.45 606.759 1217.45 606.778C1217.8 609.601 1218.16 612.431 1218.5 615.255C1218.54 615.548 1218.57 615.846 1218.61 616.14C1218.6 616.139 1218.59 616.133 1218.59 616.126L1215.57 612.822C1215.69 612.403 1215.82 611.997 1215.95 611.578C1216.44 609.965 1216.93 608.358 1217.42 606.752C1217.43 606.752 1217.43 606.739 1217.43 606.727L1217.43 606.727Z" fill="#FFDD63"/>
<path d="M1210.97 607.797L1206.54 602.947C1206.52 602.927 1206.5 602.92 1206.5 602.888C1209.88 603.888 1213.25 604.883 1216.62 605.889C1216.65 605.897 1216.69 605.905 1216.72 605.926C1216.6 605.978 1216.47 606.01 1216.35 606.049C1216.2 606.099 1216.04 606.149 1215.89 606.2C1215.8 606.226 1215.7 606.267 1215.6 606.294C1215.44 606.344 1215.29 606.4 1215.13 606.451C1215.04 606.484 1214.94 606.511 1214.85 606.539L1214.23 606.739C1214.12 606.773 1214.02 606.806 1213.91 606.846L1213.47 606.997C1213.38 607.031 1213.28 607.06 1213.19 607.086L1212.57 607.286C1212.47 607.319 1212.36 607.353 1212.25 607.392L1211.81 607.544C1211.71 607.577 1211.61 607.605 1211.51 607.637C1211.33 607.693 1211.15 607.749 1210.97 607.816C1210.98 607.791 1210.97 607.797 1210.97 607.797Z" fill="#FFDD63"/>
</g>
</g>
<defs>
<filter id="filter0_b_1689_24010" x="628" y="161" width="130" height="130" filterUnits="userSpaceOnUse" color-interpolation-filters="sRGB">
<feFlood flood-opacity="0" result="BackgroundImageFix"/>
<feGaussianBlur in="BackgroundImageFix" stdDeviation="15"/>
<feComposite in2="SourceAlpha" operator="in" result="effect1_backgroundBlur_1689_24010"/>
<feBlend mode="normal" in="SourceGraphic" in2="effect1_backgroundBlur_1689_24010" result="shape"/>
</filter>
<filter id="filter1_b_1689_24010" x="-40.3633" y="282.395" width="205.993" height="205.993" filterUnits="userSpaceOnUse" color-interpolation-filters="sRGB">
<feFlood flood-opacity="0" result="BackgroundImageFix"/>
<feGaussianBlur in="BackgroundImageFix" stdDeviation="15"/>
<feComposite in2="SourceAlpha" operator="in" result="effect1_backgroundBlur_1689_24010"/>
<feBlend mode="normal" in="SourceGraphic" in2="effect1_backgroundBlur_1689_24010" result="shape"/>
</filter>
<filter id="filter2_b_1689_24010" x="1272.99" y="6.99219" width="157.017" height="157.016" filterUnits="userSpaceOnUse" color-interpolation-filters="sRGB">
<feFlood flood-opacity="0" result="BackgroundImageFix"/>
<feGaussianBlur in="BackgroundImageFix" stdDeviation="15"/>
<feComposite in2="SourceAlpha" operator="in" result="effect1_backgroundBlur_1689_24010"/>
<feBlend mode="normal" in="SourceGraphic" in2="effect1_backgroundBlur_1689_24010" result="shape"/>
</filter>
<filter id="filter3_d_1689_24010" x="785.647" y="179.527" width="77.4068" height="77.3595" filterUnits="userSpaceOnUse" color-interpolation-filters="sRGB">
<feFlood flood-opacity="0" result="BackgroundImageFix"/>
<feColorMatrix in="SourceAlpha" type="matrix" values="0 0 0 0 0 0 0 0 0 0 0 0 0 0 0 0 0 0 127 0" result="hardAlpha"/>
<feOffset/>
<feGaussianBlur stdDeviation="9.20791"/>
<feComposite in2="hardAlpha" operator="out"/>
<feColorMatrix type="matrix" values="0 0 0 0 0.980392 0 0 0 0 0.694118 0 0 0 0 0.223529 0 0 0 0.35 0"/>
<feBlend mode="normal" in2="BackgroundImageFix" result="effect1_dropShadow_1689_24010"/>
<feBlend mode="normal" in="SourceGraphic" in2="effect1_dropShadow_1689_24010" result="shape"/>
</filter>
<filter id="filter4_d_1689_24010" x="817.573" y="208.423" width="12.5527" height="20.4848" filterUnits="userSpaceOnUse" color-interpolation-filters="sRGB">
<feFlood flood-opacity="0" result="BackgroundImageFix"/>
<feColorMatrix in="SourceAlpha" type="matrix" values="0 0 0 0 0 0 0 0 0 0 0 0 0 0 0 0 0 0 127 0" result="hardAlpha"/>
<feOffset dy="0.920791"/>
<feComposite in2="hardAlpha" operator="out"/>
<feColorMatrix type="matrix" values="0 0 0 0 0.894118 0 0 0 0 0.494118 0 0 0 0 0.0313726 0 0 0 1 0"/>
<feBlend mode="normal" in2="BackgroundImageFix" result="effect1_dropShadow_1689_24010"/>
<feBlend mode="normal" in="SourceGraphic" in2="effect1_dropShadow_1689_24010" result="shape"/>
</filter>
<filter id="filter5_d_1689_24010" x="741.57" y="276.521" width="50.4596" height="50.4283" filterUnits="userSpaceOnUse" color-interpolation-filters="sRGB">
<feFlood flood-opacity="0" result="BackgroundImageFix"/>
<feColorMatrix in="SourceAlpha" type="matrix" values="0 0 0 0 0 0 0 0 0 0 0 0 0 0 0 0 0 0 127 0" result="hardAlpha"/>
<feOffset/>
<feGaussianBlur stdDeviation="6.00234"/>
<feComposite in2="hardAlpha" operator="out"/>
<feColorMatrix type="matrix" values="0 0 0 0 0.980392 0 0 0 0 0.694118 0 0 0 0 0.223529 0 0 0 0.35 0"/>
<feBlend mode="normal" in2="BackgroundImageFix" result="effect1_dropShadow_1689_24010"/>
<feBlend mode="normal" in="SourceGraphic" in2="effect1_dropShadow_1689_24010" result="shape"/>
</filter>
<filter id="filter6_d_1689_24010" x="762.412" y="295.357" width="8.18164" height="13.3532" filterUnits="userSpaceOnUse" color-interpolation-filters="sRGB">
<feFlood flood-opacity="0" result="BackgroundImageFix"/>
<feColorMatrix in="SourceAlpha" type="matrix" values="0 0 0 0 0 0 0 0 0 0 0 0 0 0 0 0 0 0 127 0" result="hardAlpha"/>
<feOffset dy="0.600234"/>
<feComposite in2="hardAlpha" operator="out"/>
<feColorMatrix type="matrix" values="0 0 0 0 0.894118 0 0 0 0 0.494118 0 0 0 0 0.0313726 0 0 0 1 0"/>
<feBlend mode="normal" in2="BackgroundImageFix" result="effect1_dropShadow_1689_24010"/>
<feBlend mode="normal" in="SourceGraphic" in2="effect1_dropShadow_1689_24010" result="shape"/>
</filter>
<filter id="filter7_d_1689_24010" x="782.28" y="421.523" width="50.4605" height="50.4224" filterUnits="userSpaceOnUse" color-interpolation-filters="sRGB">
<feFlood flood-opacity="0" result="BackgroundImageFix"/>
<feColorMatrix in="SourceAlpha" type="matrix" values="0 0 0 0 0 0 0 0 0 0 0 0 0 0 0 0 0 0 127 0" result="hardAlpha"/>
<feOffset/>
<feGaussianBlur stdDeviation="6.00234"/>
<feComposite in2="hardAlpha" operator="out"/>
<feColorMatrix type="matrix" values="0 0 0 0 0.980392 0 0 0 0 0.694118 0 0 0 0 0.223529 0 0 0 0.35 0"/>
<feBlend mode="normal" in2="BackgroundImageFix" result="effect1_dropShadow_1689_24010"/>
<feBlend mode="normal" in="SourceGraphic" in2="effect1_dropShadow_1689_24010" result="shape"/>
</filter>
<filter id="filter8_d_1689_24010" x="803.646" y="440.636" width="7.97461" height="12.7599" filterUnits="userSpaceOnUse" color-interpolation-filters="sRGB">
<feFlood flood-opacity="0" result="BackgroundImageFix"/>
<feColorMatrix in="SourceAlpha" type="matrix" values="0 0 0 0 0 0 0 0 0 0 0 0 0 0 0 0 0 0 127 0" result="hardAlpha"/>
<feOffset dy="0.600234"/>
<feComposite in2="hardAlpha" operator="out"/>
<feColorMatrix type="matrix" values="0 0 0 0 0.894118 0 0 0 0 0.494118 0 0 0 0 0.0313726 0 0 0 1 0"/>
<feBlend mode="normal" in2="BackgroundImageFix" result="effect1_dropShadow_1689_24010"/>
<feBlend mode="normal" in="SourceGraphic" in2="effect1_dropShadow_1689_24010" result="shape"/>
</filter>
<filter id="filter9_d_1689_24010" x="1267.62" y="468.883" width="103.168" height="103.167" filterUnits="userSpaceOnUse" color-interpolation-filters="sRGB">
<feFlood flood-opacity="0" result="BackgroundImageFix"/>
<feColorMatrix in="SourceAlpha" type="matrix" values="0 0 0 0 0 0 0 0 0 0 0 0 0 0 0 0 0 0 127 0" result="hardAlpha"/>
<feOffset/>
<feGaussianBlur stdDeviation="12.2804"/>
<feComposite in2="hardAlpha" operator="out"/>
<feColorMatrix type="matrix" values="0 0 0 0 0.980392 0 0 0 0 0.694118 0 0 0 0 0.223529 0 0 0 0.35 0"/>
<feBlend mode="normal" in2="BackgroundImageFix" result="effect1_dropShadow_1689_24010"/>
<feBlend mode="normal" in="SourceGraphic" in2="effect1_dropShadow_1689_24010" result="shape"/>
</filter>
<filter id="filter10_d_1689_24010" x="1310.35" y="507.421" width="16.7451" height="27.313" filterUnits="userSpaceOnUse" color-interpolation-filters="sRGB">
<feFlood flood-opacity="0" result="BackgroundImageFix"/>
<feColorMatrix in="SourceAlpha" type="matrix" values="0 0 0 0 0 0 0 0 0 0 0 0 0 0 0 0 0 0 127 0" result="hardAlpha"/>
<feOffset dy="1.22804"/>
<feComposite in2="hardAlpha" operator="out"/>
<feColorMatrix type="matrix" values="0 0 0 0 0.894118 0 0 0 0 0.494118 0 0 0 0 0.0313726 0 0 0 1 0"/>
<feBlend mode="normal" in2="BackgroundImageFix" result="effect1_dropShadow_1689_24010"/>
<feBlend mode="normal" in="SourceGraphic" in2="effect1_dropShadow_1689_24010" result="shape"/>
</filter>
<filter id="filter11_d_1689_24010" x="1303.03" y="370.033" width="67.21" height="67.21" filterUnits="userSpaceOnUse" color-interpolation-filters="sRGB">
<feFlood flood-opacity="0" result="BackgroundImageFix"/>
<feColorMatrix in="SourceAlpha" type="matrix" values="0 0 0 0 0 0 0 0 0 0 0 0 0 0 0 0 0 0 127 0" result="hardAlpha"/>
<feOffset/>
<feGaussianBlur stdDeviation="8.00026"/>
<feComposite in2="hardAlpha" operator="out"/>
<feColorMatrix type="matrix" values="0 0 0 0 0.980392 0 0 0 0 0.694118 0 0 0 0 0.223529 0 0 0 0.35 0"/>
<feBlend mode="normal" in2="BackgroundImageFix" result="effect1_dropShadow_1689_24010"/>
<feBlend mode="normal" in="SourceGraphic" in2="effect1_dropShadow_1689_24010" result="shape"/>
</filter>
<filter id="filter12_d_1689_24010" x="1330.87" y="395.14" width="10.9092" height="17.7937" filterUnits="userSpaceOnUse" color-interpolation-filters="sRGB">
<feFlood flood-opacity="0" result="BackgroundImageFix"/>
<feColorMatrix in="SourceAlpha" type="matrix" values="0 0 0 0 0 0 0 0 0 0 0 0 0 0 0 0 0 0 127 0" result="hardAlpha"/>
<feOffset dy="0.800026"/>
<feComposite in2="hardAlpha" operator="out"/>
<feColorMatrix type="matrix" values="0 0 0 0 0.894118 0 0 0 0 0.494118 0 0 0 0 0.0313726 0 0 0 1 0"/>
<feBlend mode="normal" in2="BackgroundImageFix" result="effect1_dropShadow_1689_24010"/>
<feBlend mode="normal" in="SourceGraphic" in2="effect1_dropShadow_1689_24010" result="shape"/>
</filter>
<filter id="filter13_d_1689_24010" x="1181.39" y="577.731" width="63.6642" height="63.6179" filterUnits="userSpaceOnUse" color-interpolation-filters="sRGB">
<feFlood flood-opacity="0" result="BackgroundImageFix"/>
<feColorMatrix in="SourceAlpha" type="matrix" values="0 0 0 0 0 0 0 0 0 0 0 0 0 0 0 0 0 0 127 0" result="hardAlpha"/>
<feOffset/>
<feGaussianBlur stdDeviation="7.57353"/>
<feComposite in2="hardAlpha" operator="out"/>
<feColorMatrix type="matrix" values="0 0 0 0 0.980392 0 0 0 0 0.694118 0 0 0 0 0.223529 0 0 0 0.35 0"/>
<feBlend mode="normal" in2="BackgroundImageFix" result="effect1_dropShadow_1689_24010"/>
<feBlend mode="normal" in="SourceGraphic" in2="effect1_dropShadow_1689_24010" result="shape"/>
</filter>
<filter id="filter14_d_1689_24010" x="1206.47" y="602.861" width="12.1543" height="14.0664" filterUnits="userSpaceOnUse" color-interpolation-filters="sRGB">
<feFlood flood-opacity="0" result="BackgroundImageFix"/>
<feColorMatrix in="SourceAlpha" type="matrix" values="0 0 0 0 0 0 0 0 0 0 0 0 0 0 0 0 0 0 127 0" result="hardAlpha"/>
<feOffset dy="0.757353"/>
<feComposite in2="hardAlpha" operator="out"/>
<feColorMatrix type="matrix" values="0 0 0 0 0.894118 0 0 0 0 0.494118 0 0 0 0 0.0313726 0 0 0 1 0"/>
<feBlend mode="normal" in2="BackgroundImageFix" result="effect1_dropShadow_1689_24010"/>
<feBlend mode="normal" in="SourceGraphic" in2="effect1_dropShadow_1689_24010" result="shape"/>
</filter>
<linearGradient id="paint0_linear_1689_24010" x1="1238.62" y1="-67.7886" x2="250.417" y2="223.615" gradientUnits="userSpaceOnUse">
<stop stop-color="#BF83EE"/>
<stop offset="1" stop-color="#834EC6"/>
</linearGradient>
<linearGradient id="paint1_linear_1689_24010" x1="720.082" y1="204.774" x2="666.916" y2="244.498" gradientUnits="userSpaceOnUse">
<stop stop-color="#C385F3"/>
<stop offset="1" stop-color="#BF82EE" stop-opacity="0"/>
</linearGradient>
<linearGradient id="paint2_linear_1689_24010" x1="119.111" y1="341.125" x2="8.23762" y2="423.968" gradientUnits="userSpaceOnUse">
<stop stop-color="#C385F3"/>
<stop offset="1" stop-color="#BF82EE" stop-opacity="0"/>
</linearGradient>
<linearGradient id="paint3_linear_1689_24010" x1="1389.03" y1="56.0866" x2="1315.36" y2="111.133" gradientUnits="userSpaceOnUse">
<stop stop-color="#E6C5FF"/>
<stop offset="1" stop-color="#BF82EE" stop-opacity="0"/>
</linearGradient>
<radialGradient id="paint4_radial_1689_24010" cx="0" cy="0" r="1" gradientUnits="userSpaceOnUse" gradientTransform="translate(20.2731 20.2698) rotate(90) scale(20.2698 20.2731)">
<stop offset="0.015625" stop-color="#FFBD52"/>
<stop offset="1" stop-color="#EF980A"/>
</radialGradient>
<linearGradient id="paint5_linear_1689_24010" x1="840.885" y1="205.897" x2="815.255" y2="236.334" gradientUnits="userSpaceOnUse">
<stop stop-color="#FFEB7A"/>
<stop offset="1" stop-color="#FFD801"/>
</linearGradient>
<radialGradient id="paint6_radial_1689_24010" cx="0" cy="0" r="1" gradientUnits="userSpaceOnUse" gradientTransform="translate(13.2154 13.2133) rotate(90) scale(13.2133 13.2154)">
<stop offset="0.015625" stop-color="#FFBD52"/>
<stop offset="1" stop-color="#EF980A"/>
</radialGradient>
<linearGradient id="paint7_linear_1689_24010" x1="777.578" y1="293.711" x2="760.87" y2="313.552" gradientUnits="userSpaceOnUse">
<stop stop-color="#FFEB7A"/>
<stop offset="1" stop-color="#FFD801"/>
</linearGradient>
<radialGradient id="paint8_radial_1689_24010" cx="0" cy="0" r="1" gradientUnits="userSpaceOnUse" gradientTransform="translate(13.2148 13.2139) rotate(90) scale(13.2139 13.2148)">
<stop offset="0.015625" stop-color="#FFBD52"/>
<stop offset="1" stop-color="#EF980A"/>
</radialGradient>
<linearGradient id="paint9_linear_1689_24010" x1="806.306" y1="433.366" x2="814.427" y2="457.984" gradientUnits="userSpaceOnUse">
<stop stop-color="#FFEB7A"/>
<stop offset="1" stop-color="#FFD801"/>
</linearGradient>
<radialGradient id="paint10_radial_1689_24010" cx="0" cy="0" r="1" gradientUnits="userSpaceOnUse" gradientTransform="translate(1319.2 520.466) rotate(90) scale(27.0169)">
<stop offset="0.015625" stop-color="#FFBD52"/>
<stop offset="1" stop-color="#EF980A"/>
</radialGradient>
<linearGradient id="paint11_linear_1689_24010" x1="1331.48" y1="495.905" x2="1319.2" y2="547.483" gradientUnits="userSpaceOnUse">
<stop stop-color="#FFEB7A"/>
<stop offset="1" stop-color="#FFD801"/>
</linearGradient>
<radialGradient id="paint12_radial_1689_24010" cx="0" cy="0" r="1" gradientUnits="userSpaceOnUse" gradientTransform="translate(1336.64 403.638) rotate(90) scale(17.6006)">
<stop offset="0.015625" stop-color="#FFBD52"/>
<stop offset="1" stop-color="#EF980A"/>
</radialGradient>
<linearGradient id="paint13_linear_1689_24010" x1="1344.64" y1="387.638" x2="1336.64" y2="421.239" gradientUnits="userSpaceOnUse">
<stop stop-color="#FFEB7A"/>
<stop offset="1" stop-color="#FFD801"/>
</linearGradient>
<radialGradient id="paint14_radial_1689_24010" cx="0" cy="0" r="1" gradientUnits="userSpaceOnUse" gradientTransform="translate(16.6734 16.6734) rotate(90) scale(16.6734 16.6734)">
<stop offset="0.015625" stop-color="#FFBD52"/>
<stop offset="1" stop-color="#EF980A"/>
</radialGradient>
<linearGradient id="paint15_linear_1689_24010" x1="1208.59" y1="593.25" x2="1224.45" y2="621.858" gradientUnits="userSpaceOnUse">
<stop stop-color="#FFEB7A"/>
<stop offset="1" stop-color="#FFD801"/>
</linearGradient>
<clipPath id="clip0_1689_24010">
<rect width="1441" height="752" fill="white"/>
</clipPath>
</defs>
</svg>
