<svg width="30" height="30" viewBox="0 0 30 30" fill="none" xmlns="http://www.w3.org/2000/svg">
<path d="M15 0L16.3801 6.72936L19.8705 0.812741L18.9908 7.62561L24.2132 3.16289L21.169 9.32099L27.5575 6.79578L22.6788 11.6318L29.541 11.3177L23.3564 14.3076L29.9488 16.2387L23.1284 17.0584L28.7366 21.0254L22.0196 19.5862L26.0359 25.1592L20.1502 21.6169L22.1392 28.1921L17.7226 22.9307L17.4689 29.7954L15 23.385L12.5311 29.7954L12.2774 22.9307L7.86079 28.1921L9.84983 21.6169L3.96414 25.1592L7.98036 19.5862L1.2634 21.0254L6.87158 17.0584L0.0512323 16.2387L6.64364 14.3076L0.458996 11.3177L7.32124 11.6318L2.4425 6.79578L8.83096 9.32099L5.78681 3.16289L11.0092 7.62561L10.1295 0.812741L13.6199 6.72936L15 0Z" fill="#FFCF3C"/>
</svg>
