<svg width="1440" height="739" viewBox="0 0 1440 739" fill="none" xmlns="http://www.w3.org/2000/svg">
<g clip-path="url(#clip0_2530_2013)">
<path d="M2064.2 -102.255L-381.616 -533.519L-624.202 842.255L1821.62 1273.52L2064.2 -102.255Z" fill="#B8ABFF"/>
<path d="M-405.399 -398.638L-323.679 -385.358C-241.958 -372.079 -78.5169 -345.521 84.5977 -317.11C247.712 -288.698 410.5 -258.435 573.525 -229.515C736.549 -200.593 899.811 -173.014 1065.45 -158.896C1231.08 -144.778 1399.09 -144.12 1562.56 -117.742C1726.03 -91.3628 1884.97 -39.2645 1964.44 -13.2153L2043.91 12.8338L1821.62 1273.52L1740.09 1259.14C1658.56 1244.77 1495.51 1216.02 1332.45 1187.27C1169.4 1158.51 1006.34 1129.76 843.289 1101.01C680.235 1072.26 517.18 1043.51 354.126 1014.76C191.071 986.009 28.0164 957.258 -135.038 928.508C-298.093 899.757 -461.148 871.006 -542.675 856.63L-624.202 842.255L-405.399 -398.638Z" fill="#A89AF4"/>
<path d="M-406.247 -393.829L-327.663 -362.76C-249.08 -331.69 -91.912 -269.553 69.6761 -232.485C231.264 -195.418 397.273 -183.422 563.063 -170.179C728.852 -156.938 894.421 -142.447 1056.18 -106.335C1217.93 -70.2223 1375.88 -12.4859 1538.01 21.4905C1700.14 55.468 1866.47 65.6868 1949.63 70.7962L2032.79 75.9056L1821.62 1273.52L1740.09 1259.14C1658.56 1244.77 1495.51 1216.02 1332.45 1187.27C1169.4 1158.52 1006.34 1129.76 843.29 1101.01C680.235 1072.26 517.18 1043.51 354.126 1014.76C191.071 986.01 28.0165 957.259 -135.038 928.508C-298.093 899.757 -461.147 871.006 -542.675 856.63L-624.202 842.255L-406.247 -393.829Z" fill="#9889E9"/>
<path d="M-437.278 -217.84L-358.124 -190.008C-278.969 -162.178 -120.66 -106.516 39.8466 -63.3116C200.353 -20.1074 363.055 10.6397 529.012 22.9323C694.968 35.2262 864.179 29.0681 1029.77 43.4346C1195.36 57.801 1357.33 92.6933 1518.01 134.904C1678.69 177.114 1838.09 226.645 1917.78 251.41L1997.48 276.174L1821.62 1273.52L1740.09 1259.14C1658.56 1244.77 1495.51 1216.02 1332.45 1187.27C1169.4 1158.52 1006.34 1129.76 843.29 1101.01C680.235 1072.26 517.181 1043.51 354.126 1014.76C191.071 986.009 28.0167 957.259 -135.038 928.508C-298.093 899.757 -461.147 871.006 -542.674 856.63L-624.202 842.255L-437.278 -217.84Z" fill="#8978DD"/>
<path d="M-477.162 8.34757L-393.875 12.7436C-310.588 17.1396 -144.014 25.9316 22.6217 34.3746C189.257 42.8176 355.954 50.9128 521.014 68.2907C686.074 85.6698 849.497 112.332 1010.33 153.671C1171.17 195.009 1329.41 251.023 1490.96 288.345C1652.5 325.665 1817.34 344.291 1899.76 353.604L1982.18 362.917L1821.62 1273.52L1740.09 1259.14C1658.56 1244.77 1495.51 1216.02 1332.45 1187.27C1169.4 1158.51 1006.34 1129.76 843.29 1101.01C680.235 1072.26 517.18 1043.51 354.126 1014.76C191.071 986.009 28.0166 957.258 -135.038 928.508C-298.093 899.757 -461.147 871.006 -542.675 856.63L-624.202 842.255L-477.162 8.34757Z" fill="#7967D2"/>
<path d="M-482.12 36.4656L-401.03 53.3187C-319.939 70.1706 -157.758 103.877 4.67697 136.141C167.112 168.407 329.801 199.233 490.711 240.145C651.621 281.058 810.752 332.058 971.135 375.961C1131.52 419.865 1293.15 456.671 1455.36 490.252C1617.56 523.835 1780.33 554.195 1861.71 569.374L1943.1 584.553L1821.62 1273.52L1740.09 1259.14C1658.56 1244.77 1495.51 1216.02 1332.45 1187.27C1169.4 1158.51 1006.34 1129.76 843.289 1101.01C680.234 1072.26 517.18 1043.51 354.125 1014.76C191.071 986.009 28.016 957.258 -135.039 928.508C-298.093 899.757 -461.148 871.006 -542.675 856.63L-624.202 842.255L-482.12 36.4656Z" fill="#6956C7"/>
<path d="M-516.284 230.22L-433.703 238.62C-351.122 247.019 -185.96 263.818 -21.0657 282.137C143.828 300.457 308.454 320.297 469.187 362.213C629.921 404.13 786.761 468.125 946.243 517.138C1105.72 566.152 1267.85 600.185 1430.4 631.764C1592.96 663.345 1755.95 692.47 1837.44 707.033L1918.94 721.595L1821.62 1273.52L1740.09 1259.14C1658.56 1244.77 1495.51 1216.02 1332.45 1187.27C1169.4 1158.52 1006.34 1129.76 843.29 1101.01C680.235 1072.26 517.18 1043.51 354.126 1014.76C191.071 986.01 28.0165 957.259 -135.038 928.508C-298.093 899.757 -461.147 871.006 -542.675 856.63L-624.202 842.255L-516.284 230.22Z" fill="#5944BC"/>
<path d="M-542.649 379.743L-460.769 392.119C-378.89 404.497 -215.131 429.251 -50.6363 449.838C113.858 470.423 279.088 486.839 440.424 525.333C601.761 563.826 759.205 624.397 919.92 666.416C1080.63 708.437 1244.62 731.907 1407.94 759.157C1571.26 786.406 1733.91 817.436 1815.24 832.95L1896.57 848.465L1821.62 1273.52L1740.09 1259.14C1658.56 1244.77 1495.51 1216.02 1332.45 1187.27C1169.4 1158.51 1006.34 1129.76 843.289 1101.01C680.234 1072.26 517.18 1043.51 354.125 1014.76C191.071 986.009 28.0159 957.258 -135.039 928.507C-298.093 899.757 -461.148 871.006 -542.675 856.63L-624.203 842.255L-542.649 379.743Z" fill="#4933B1"/>
<path d="M-569.511 532.085L-485.323 531.372C-401.135 530.658 -232.759 529.231 -70.3413 561.595C92.0761 593.96 248.535 660.117 410.091 697.367C571.647 734.616 738.3 742.958 904.415 754.355C1070.53 765.752 1236.11 780.204 1399.21 808.659C1562.32 837.116 1722.96 879.576 1803.27 900.808L1883.59 922.038L1821.62 1273.52L1740.09 1259.14C1658.56 1244.77 1495.51 1216.02 1332.45 1187.27C1169.4 1158.51 1006.34 1129.76 843.29 1101.01C680.235 1072.26 517.181 1043.51 354.126 1014.76C191.071 986.009 28.0168 957.258 -135.038 928.507C-298.092 899.757 -461.147 871.006 -542.674 856.63L-624.202 842.255L-569.511 532.085Z" fill="#3A22A5"/>
<path d="M-599.445 701.851L-516.017 705.445C-432.588 709.04 -265.732 716.231 -100.437 732.276C64.8577 748.322 228.591 773.223 393.45 791.744C558.308 810.264 724.292 822.404 888.846 842.653C1053.4 862.901 1216.52 891.258 1378.26 927.488C1540 963.719 1700.34 1007.82 1780.52 1029.87L1860.69 1051.92L1821.62 1273.52L1740.09 1259.14C1658.56 1244.77 1495.51 1216.02 1332.45 1187.27C1169.4 1158.51 1006.34 1129.76 843.29 1101.01C680.235 1072.26 517.18 1043.51 354.126 1014.76C191.071 986.009 28.0166 957.258 -135.038 928.508C-298.093 899.757 -461.147 871.006 -542.675 856.63L-624.202 842.255L-599.445 701.851Z" fill="#2A119A"/>
</g>
<defs>
<clipPath id="clip0_2530_2013">
<rect width="1920" height="1080" fill="white" transform="translate(-240 -170)"/>
</clipPath>
</defs>
</svg>
