<svg width="699" height="628" viewBox="0 0 699 628" fill="none" xmlns="http://www.w3.org/2000/svg">
<path d="M176.934 497L180.829 504.455L189.197 505.5L183.261 511.48L184.848 519.735L177.305 515.966L169.885 520.021L171.163 511.706L165 505.971L173.347 504.598L176.934 497Z" fill="#FFD200"/>
<path d="M461.934 65.9995L465.829 73.455L474.197 74.4996L468.261 80.4803L469.848 88.7346L462.305 84.9659L454.885 89.0213L456.163 80.7056L450 74.9706L458.347 73.5983L461.934 65.9995Z" fill="#FFD200"/>
<g filter="url(#filter0_d_2566_2318)">
<path d="M690.271 246.152C692.091 242.999 692.287 240.148 691.145 238.049L689.171 234.387C687.926 232.302 687.758 235.305 684.039 235.302C676.582 235.275 667.476 240.526 663.758 246.966C661.937 250.119 658.965 248.477 660.156 250.583L662.445 254.501C663.7 256.549 666.325 257.792 669.994 257.808C677.477 257.809 686.553 252.592 690.271 246.152Z" fill="url(#paint0_linear_2566_2318)"/>
<path d="M669.81 233.962C661.871 238.489 657.553 245.871 660.165 250.452C662.776 255.033 671.329 255.077 679.268 250.551C687.207 246.024 691.525 238.642 688.914 234.061C686.302 229.48 677.749 229.436 669.81 233.962Z" fill="url(#paint1_linear_2566_2318)"/>
<path d="M671.041 236.121C665.172 239.467 661.98 244.927 663.913 248.316C665.845 251.704 672.168 251.739 678.037 248.392C683.906 245.046 687.098 239.586 685.166 236.198C683.234 232.809 676.91 232.775 671.041 236.121Z" fill="url(#paint2_linear_2566_2318)"/>
<path style="mix-blend-mode:multiply" d="M679.83 234.69C674.319 234.661 667.586 238.551 664.837 243.311C663.955 244.682 663.569 246.314 663.744 247.935C663.078 246.395 663.279 244.409 664.521 242.257C667.252 237.527 673.985 233.638 679.514 233.635C683.089 233.597 685.258 235.228 685.624 237.615C684.85 235.843 682.84 234.683 679.83 234.69Z" fill="url(#paint3_linear_2566_2318)"/>
<g style="mix-blend-mode:multiply">
<g style="mix-blend-mode:multiply">
<path d="M670.296 257.792L669.993 257.807L669.725 257.799L667.48 253.896L667.805 253.916L668.042 253.905L670.296 257.792Z" fill="#FDD65B"/>
</g>
<g style="mix-blend-mode:multiply">
<path d="M665.787 257.102L663.515 253.174C663.72 253.292 663.979 253.336 664.219 253.412L666.491 257.34C666.252 257.273 666.018 257.193 665.787 257.102V257.102Z" fill="#FDD65B"/>
</g>
<g style="mix-blend-mode:multiply">
<path d="M673.108 257.525L670.867 253.634L671.374 253.538L673.62 257.421L673.108 257.525Z" fill="#FDD65B"/>
</g>
<g style="mix-blend-mode:multiply">
<path d="M679.094 255.642L676.859 251.776L677.308 251.563L679.543 255.428L679.094 255.642Z" fill="#FDD65B"/>
</g>
<g style="mix-blend-mode:multiply">
<path d="M676.201 256.757L673.962 252.879L674.445 252.717L676.683 256.594L676.201 256.757Z" fill="#FDD65B"/>
</g>
<g style="mix-blend-mode:multiply">
<path d="M681.826 254.223L679.591 250.358L680.015 250.098L682.25 253.963L681.826 254.223Z" fill="#FDD65B"/>
</g>
<g style="mix-blend-mode:multiply">
<path d="M691.725 242.283L689.527 238.481C689.575 238.215 689.611 237.952 689.635 237.692L691.83 241.482C691.775 241.723 691.765 242.012 691.725 242.283Z" fill="#FDD65B"/>
</g>
<g style="mix-blend-mode:multiply">
<path d="M688.224 241.994L688.515 241.49L690.699 245.315C690.604 245.481 690.508 245.646 690.408 245.82L688.224 241.994Z" fill="#FDD65B"/>
</g>
<g style="mix-blend-mode:multiply">
<path d="M688.959 248.074C688.873 248.223 688.782 248.381 688.64 248.499L686.416 244.651C686.507 244.493 686.594 244.343 686.735 244.225L688.959 248.074Z" fill="#FDD65B"/>
</g>
<g style="mix-blend-mode:multiply">
<path d="M684.344 246.84C684.473 246.726 684.587 246.602 684.704 246.491L686.935 250.343C686.814 250.463 686.7 250.586 686.571 250.701L684.344 246.84Z" fill="#FDD65B"/>
</g>
<g style="mix-blend-mode:multiply">
<path d="M684.711 252.265C684.578 252.368 684.453 252.474 684.313 252.572L682.086 248.711C682.226 248.614 682.351 248.507 682.479 248.413L684.711 252.265Z" fill="#FDD65B"/>
</g>
</g>
<path style="mix-blend-mode:color-dodge" d="M675.27 258.5C680.678 256.724 684.249 252.796 683.243 249.714C682.238 246.632 677.032 245.581 671.612 247.36C666.192 249.139 662.626 253.06 663.618 256.165C664.61 259.271 669.85 260.279 675.27 258.5Z" fill="url(#paint4_radial_2566_2318)"/>
<path style="mix-blend-mode:multiply" d="M669.994 257.808C666.325 257.792 663.7 256.549 662.445 254.501L662.134 253.984C663.46 255.801 665.957 256.864 669.362 256.865C676.844 256.865 685.933 251.645 689.651 245.205C691.471 242.052 691.667 239.202 690.524 237.102L691.145 238.049C692.291 240.14 692.087 243.007 690.271 246.152C686.553 252.592 677.477 257.809 669.994 257.808Z" fill="url(#paint5_linear_2566_2318)"/>
<path style="mix-blend-mode:color-dodge" d="M668.09 254.458C664.484 254.478 662.006 253.237 660.722 251.255C662.144 252.707 664.453 253.567 667.491 253.566C674.96 253.59 684.036 248.373 687.754 241.933C689.693 238.576 689.784 235.559 688.387 233.429C690.461 235.551 690.578 238.971 688.366 242.802C684.648 249.242 675.572 254.459 668.09 254.458Z" fill="url(#paint6_radial_2566_2318)"/>
<path style="mix-blend-mode:multiply" d="M670.763 244.463C670.763 244.463 670.842 244.508 670.913 244.622C671.044 244.71 671.181 244.789 671.323 244.859C671.509 244.951 671.7 245.033 671.895 245.105C672.126 245.186 672.364 245.242 672.607 245.275L673.585 243.58L673.179 243.482C672.799 243.38 672.425 243.256 672.06 243.109C671.77 242.999 671.513 242.815 671.317 242.575C671.155 242.366 671.081 242.1 671.113 241.837C671.152 241.464 671.28 241.105 671.485 240.791C671.747 240.338 672.081 239.931 672.475 239.586C672.85 239.257 673.27 238.983 673.723 238.772C674.166 238.558 674.633 238.397 675.114 238.293C675.585 238.172 676.068 238.099 676.554 238.074L677.391 236.623L678.39 236.622L677.53 238.112C678.133 238.16 678.728 238.277 679.303 238.463C679.792 238.614 680.247 238.859 680.642 239.184L678.566 240.959C678.514 240.879 678.448 240.809 678.371 240.752C678.221 240.637 678.057 240.542 677.882 240.47C677.657 240.353 677.423 240.253 677.182 240.171C676.883 240.064 676.573 239.99 676.258 239.952L675.302 241.607L675.895 241.782C676.24 241.882 676.574 242.018 676.89 242.188C677.123 242.299 677.321 242.472 677.464 242.687C677.582 242.885 677.626 243.119 677.587 243.347C677.534 243.653 677.423 243.945 677.258 244.208C677.012 244.637 676.7 245.024 676.333 245.355C675.972 245.692 675.571 245.983 675.139 246.222C674.705 246.463 674.243 246.651 673.764 246.783C673.29 246.925 672.802 247.014 672.309 247.047L671.581 248.308L670.581 248.309L671.31 247.048C670.777 247.014 670.254 246.893 669.761 246.69C669.376 246.53 669.007 246.334 668.659 246.106L670.763 244.463ZM674.704 244.573C674.822 244.368 674.837 244.197 674.725 244.081C674.57 243.922 674.373 243.808 674.158 243.753L673.27 245.29C673.551 245.301 673.829 245.242 674.08 245.116C674.331 244.991 674.545 244.804 674.704 244.573V244.573ZM674.183 240.615C674.06 240.827 674.058 240.994 674.198 241.117C674.376 241.271 674.582 241.39 674.805 241.467L675.665 239.978C674.919 239.978 674.424 240.197 674.183 240.615V240.615Z" fill="url(#paint7_linear_2566_2318)"/>
<path d="M670.32 243.903C670.358 243.966 670.411 244.019 670.474 244.055C670.603 244.147 670.74 244.226 670.884 244.292C671.071 244.385 671.263 244.465 671.461 244.53C671.69 244.613 671.927 244.673 672.168 244.707L673.147 243.012L672.741 242.915C672.362 242.81 671.99 242.683 671.626 242.534C671.337 242.422 671.081 242.238 670.883 242C670.724 241.789 670.651 241.525 670.679 241.262C670.723 240.89 670.851 240.532 671.051 240.216C671.312 239.762 671.646 239.355 672.041 239.011C672.416 238.681 672.836 238.407 673.289 238.197C673.731 237.98 674.198 237.819 674.68 237.718C675.152 237.601 675.634 237.527 676.12 237.498L676.953 236.056L677.991 236.078L677.127 237.575C677.727 237.616 678.321 237.732 678.892 237.922C679.383 238.074 679.841 238.32 680.239 238.647L678.163 240.422C678.111 240.342 678.044 240.272 677.967 240.215C677.82 240.102 677.658 240.008 677.486 239.937C677.259 239.819 677.022 239.717 676.779 239.634C676.48 239.525 676.17 239.452 675.854 239.415L674.898 241.071L675.484 241.24C675.833 241.339 676.17 241.474 676.491 241.643C676.718 241.76 676.911 241.933 677.052 242.146C677.176 242.342 677.22 242.578 677.176 242.806C677.123 243.111 677.011 243.404 676.847 243.667C676.6 244.099 676.286 244.489 675.917 244.822C675.57 245.16 675.184 245.456 674.767 245.703C674.333 245.944 673.871 246.133 673.392 246.265C672.926 246.39 672.449 246.467 671.967 246.493L671.239 247.754L670.201 247.733L670.929 246.472C670.397 246.438 669.873 246.317 669.38 246.114C669.002 245.94 668.64 245.731 668.3 245.49L670.32 243.903ZM674.261 244.013C674.384 243.8 674.394 243.638 674.295 243.518C674.139 243.359 673.942 243.246 673.727 243.19L672.835 244.735C673.115 244.745 673.392 244.684 673.641 244.557C673.89 244.431 674.104 244.244 674.261 244.013V244.013ZM673.74 240.055C673.617 240.268 673.615 240.435 673.755 240.558C673.933 240.711 674.139 240.83 674.362 240.908L675.222 239.418C674.476 239.418 673.981 239.637 673.74 240.055Z" fill="url(#paint8_linear_2566_2318)"/>
<g style="mix-blend-mode:color-dodge">
<path style="mix-blend-mode:color-dodge" d="M670.318 243.903C670.356 243.966 670.409 244.019 670.472 244.055C670.601 244.147 670.739 244.226 670.882 244.292C671.069 244.385 671.261 244.465 671.459 244.53C671.688 244.613 671.925 244.673 672.166 244.707L673.145 243.012L672.739 242.915C672.36 242.81 671.988 242.683 671.624 242.534C671.335 242.422 671.079 242.238 670.881 242C670.722 241.789 670.649 241.525 670.677 241.262C670.721 240.89 670.849 240.532 671.049 240.216C671.31 239.762 671.645 239.355 672.039 239.011C672.414 238.681 672.834 238.407 673.287 238.197C673.729 237.98 674.196 237.819 674.678 237.718C675.15 237.601 675.632 237.527 676.118 237.498L676.951 236.056L677.989 236.078L677.125 237.575C677.725 237.616 678.319 237.732 678.89 237.922C679.382 238.074 679.839 238.32 680.237 238.647L678.161 240.422C678.109 240.342 678.042 240.272 677.965 240.215C677.818 240.102 677.656 240.008 677.484 239.937C677.257 239.819 677.02 239.717 676.777 239.634C676.478 239.525 676.168 239.452 675.852 239.415L674.896 241.071L675.482 241.24C675.831 241.339 676.168 241.474 676.489 241.643C676.716 241.76 676.909 241.933 677.05 242.146C677.174 242.342 677.218 242.578 677.174 242.806C677.121 243.111 677.01 243.404 676.845 243.667C676.598 244.099 676.284 244.489 675.915 244.822C675.568 245.16 675.182 245.456 674.765 245.703C674.331 245.944 673.869 246.133 673.39 246.265C672.924 246.39 672.447 246.467 671.965 246.493L671.237 247.754L670.199 247.733L670.927 246.472C670.395 246.438 669.872 246.317 669.378 246.114C669 245.94 668.638 245.731 668.299 245.49L670.318 243.903ZM674.259 244.013C674.382 243.8 674.392 243.638 674.293 243.518C674.137 243.359 673.941 243.246 673.725 243.19L672.833 244.735C673.113 244.745 673.39 244.684 673.639 244.557C673.888 244.431 674.102 244.244 674.259 244.013V244.013ZM673.738 240.055C673.615 240.268 673.613 240.435 673.753 240.558C673.931 240.711 674.137 240.83 674.36 240.908L675.22 239.418C674.474 239.418 673.979 239.637 673.738 240.055Z" fill="url(#paint9_radial_2566_2318)"/>
</g>
</g>
<ellipse cx="25.5107" cy="25.5086" rx="25.5107" ry="25.5086" transform="matrix(0.893179 0.449701 -0.450297 0.892879 578.972 441.003)" fill="#FFB439"/>
<g filter="url(#filter1_d_2566_2318)">
<ellipse cx="25.5107" cy="25.5086" rx="25.5107" ry="25.5086" transform="matrix(0.893179 0.449701 -0.450297 0.892879 578.972 441.003)" fill="url(#paint10_radial_2566_2318)"/>
<path d="M611.412 485.895C605.526 497.566 591.29 502.262 579.614 496.383C567.938 490.505 563.244 476.278 569.13 464.607C575.016 452.937 589.252 448.241 600.928 454.12C612.604 459.998 617.297 474.225 611.412 485.895Z" stroke="url(#paint11_linear_2566_2318)" stroke-width="3.68316"/>
</g>
<g filter="url(#filter2_d_2566_2318)">
<path d="M595.244 462.976L595.238 462.989C595.219 463.056 595.182 463.13 595.146 463.202L590.698 472.028C590.661 472.07 590.618 472.065 590.569 472.07C590.25 472.063 589.95 472.049 589.638 472.03C589.202 472.01 588.749 471.998 588.314 471.978L586.733 471.918C586.302 471.897 585.872 471.88 585.441 471.865C584.926 471.852 584.405 471.819 583.89 471.806C583.455 471.786 583.013 471.779 582.567 471.753C582.205 471.739 581.85 471.713 581.5 471.706C581.471 471.709 581.442 471.704 581.414 471.694C581.402 471.688 581.402 471.688 581.396 471.669L582.004 471.285C583.17 470.552 584.319 469.826 585.486 469.095C586.726 468.308 587.979 467.527 589.22 466.74C590.368 466.015 591.529 465.294 592.676 464.569C593.512 464.038 594.359 463.513 595.196 462.982C595.219 462.964 595.238 462.958 595.25 462.934L595.262 462.94C595.244 462.945 595.25 462.964 595.244 462.976V462.976Z" fill="#FFDD63"/>
<path d="M596.454 479.261L596.459 479.28L594.124 479.438L586.787 479.931C586.76 479.929 586.733 479.931 586.707 479.937C586.671 479.918 586.689 479.882 586.696 479.87L590.563 472.195C590.582 472.159 590.606 472.11 590.637 472.079C590.674 472.037 590.704 472.068 590.735 472.097C590.857 472.251 590.992 472.411 591.113 472.564C591.479 473.025 591.845 473.486 592.217 473.935C592.541 474.328 592.847 474.727 593.17 475.121C593.494 475.514 593.811 475.919 594.135 476.312C594.409 476.65 594.69 477.007 594.965 477.344C595.239 477.682 595.52 478.039 595.794 478.376C596.014 478.641 596.228 478.918 596.447 479.182C596.429 479.218 596.435 479.236 596.454 479.261V479.261Z" fill="#FFDD63"/>
<path d="M582.871 487.528C582.865 487.54 582.846 487.546 582.84 487.559L582.827 487.553C582.84 487.528 582.821 487.503 582.822 487.472C582.599 486.025 582.383 484.566 582.161 483.119C581.94 481.642 581.712 480.145 581.49 478.668C581.274 477.239 581.052 475.791 580.836 474.364C580.782 473.983 580.722 473.615 580.668 473.235C580.668 473.204 580.663 473.186 580.656 473.137C580.692 473.155 580.705 473.192 580.71 473.21C581.462 474.371 582.199 475.525 582.949 476.686C583.808 478.025 584.656 479.357 585.516 480.696L585.955 481.377C585.967 481.414 585.954 481.439 585.942 481.463L582.969 487.363C582.938 487.424 582.907 487.485 582.871 487.528V487.528Z" fill="#FFDD63"/>
<path d="M581.367 471.693L581.373 471.68C581.85 471.705 582.322 471.713 582.8 471.738C583.419 471.759 584.032 471.792 584.65 471.811C585.116 471.832 585.6 471.846 586.066 471.865C586.759 471.892 587.433 471.924 588.125 471.951C588.591 471.97 589.056 471.99 589.539 472.004C589.871 472.016 590.215 472.037 590.545 472.05C590.575 472.049 590.619 472.056 590.642 472.038C590.656 472.045 590.65 472.056 590.63 472.062L586.713 479.834C586.695 479.871 586.665 479.901 586.677 479.939C586.634 479.963 586.628 479.914 586.622 479.895C586.543 479.778 586.464 479.662 586.39 479.533C584.733 476.948 583.067 474.345 581.409 471.759C581.398 471.735 581.383 471.712 581.366 471.692L581.367 471.693Z" fill="#FFDD63"/>
<path d="M595.69 480.713L595.703 480.72C595.691 480.743 595.654 480.756 595.63 480.773C591.78 482.81 587.925 484.858 584.076 486.894C583.677 487.107 583.267 487.314 582.867 487.527C582.861 487.509 582.867 487.497 582.873 487.485L585.958 481.364C586.625 481.318 587.274 481.276 587.944 481.23C590.518 481.054 593.086 480.89 595.647 480.707C595.654 480.725 595.672 480.72 595.691 480.713L595.69 480.713Z" fill="#FFDD63"/>
<path d="M590.647 472.059L595.175 463.075C595.193 463.039 595.193 463.008 595.236 462.984C595.642 468.36 596.053 473.725 596.446 479.094C596.451 479.143 596.464 479.21 596.451 479.265C596.31 479.119 596.194 478.952 596.073 478.799C595.92 478.614 595.762 478.412 595.608 478.227C595.518 478.104 595.408 477.987 595.316 477.865C595.157 477.663 594.992 477.472 594.833 477.27C594.736 477.159 594.645 477.036 594.553 476.913L593.931 476.139C593.827 476.01 593.723 475.881 593.607 475.746L593.148 475.193C593.05 475.078 592.957 474.959 592.869 474.836L592.247 474.062C592.143 473.933 592.039 473.804 591.923 473.669L591.464 473.116C591.361 472.986 591.269 472.865 591.166 472.735C590.988 472.508 590.811 472.281 590.616 472.059C590.66 472.066 590.647 472.059 590.647 472.059V472.059Z" fill="#FFDD63"/>
</g>
<ellipse cx="16.6292" cy="16.6287" rx="16.6292" ry="16.6287" transform="matrix(0.851165 -0.524899 0.525651 0.8507 202.672 508.564)" fill="#FFB439"/>
<g filter="url(#filter3_d_2566_2318)">
<ellipse cx="16.6292" cy="16.6287" rx="16.6292" ry="16.6287" transform="matrix(0.851165 -0.524899 0.525651 0.8507 202.672 508.564)" fill="url(#paint12_radial_2566_2318)"/>
<path d="M238.699 505.883C243.178 513.131 240.93 522.633 233.677 527.106C226.424 531.579 216.913 529.328 212.435 522.08C207.956 514.831 210.204 505.329 217.457 500.857C224.71 496.384 234.22 498.634 238.699 505.883Z" stroke="url(#paint13_linear_2566_2318)" stroke-width="2.40094"/>
</g>
<g filter="url(#filter4_d_2566_2318)">
<path d="M219.621 506.328L219.626 506.335C219.657 506.369 219.685 506.414 219.713 506.459L223.097 511.941C223.108 511.976 223.09 511.998 223.076 512.027C222.964 512.202 222.854 512.364 222.736 512.531C222.577 512.766 222.415 513.013 222.256 513.248L221.682 514.105C221.524 514.338 221.367 514.571 221.212 514.805C221.029 515.087 220.833 515.365 220.65 515.646C220.49 515.881 220.336 516.124 220.169 516.363C220.038 516.559 219.902 516.748 219.779 516.939C219.77 516.956 219.758 516.971 219.743 516.983C219.735 516.988 219.735 516.988 219.723 516.985L219.717 516.516C219.708 515.618 219.697 514.732 219.689 513.835C219.675 512.877 219.669 511.915 219.655 510.957C219.644 510.072 219.64 509.182 219.629 508.297C219.619 507.652 219.617 507.002 219.607 506.356C219.605 506.337 219.608 506.325 219.599 506.31L219.607 506.305C219.604 506.317 219.616 506.32 219.621 506.328V506.328Z" fill="#FFDD63"/>
<path d="M229.079 511.212L229.091 511.216L228.382 512.566L226.151 516.809C226.141 516.824 226.133 516.839 226.127 516.855C226.104 516.869 226.09 516.847 226.086 516.839L223.143 512.073C223.129 512.05 223.111 512.02 223.104 511.992C223.093 511.957 223.121 511.951 223.147 511.944C223.275 511.929 223.41 511.909 223.536 511.893C223.917 511.847 224.298 511.801 224.674 511.748C225.003 511.702 225.329 511.668 225.658 511.623C225.987 511.577 226.321 511.539 226.649 511.494C226.93 511.457 227.225 511.423 227.506 511.385C227.788 511.348 228.082 511.314 228.362 511.276C228.584 511.245 228.811 511.221 229.033 511.189C229.047 511.211 229.059 511.214 229.079 511.212V511.212Z" fill="#FFDD63"/>
<path d="M229.035 521.576C229.039 521.584 229.036 521.596 229.041 521.604L229.033 521.609C229.024 521.593 229.004 521.595 228.986 521.584C228.107 521.214 227.223 520.836 226.343 520.466C225.447 520.085 224.538 519.701 223.642 519.32C222.774 518.953 221.895 518.582 221.028 518.215C220.798 518.115 220.573 518.023 220.344 517.923C220.326 517.913 220.314 517.909 220.285 517.896C220.308 517.882 220.332 517.888 220.344 517.891C221.246 517.87 222.138 517.854 223.039 517.834C224.076 517.813 225.105 517.797 226.143 517.776L226.671 517.765C226.695 517.771 226.705 517.786 226.714 517.801L228.976 521.465C229 521.503 229.023 521.541 229.035 521.576V521.576Z" fill="#FFDD63"/>
<path d="M219.725 517.009L219.721 517.001C219.897 516.745 220.063 516.485 220.24 516.229C220.463 515.892 220.69 515.563 220.912 515.226C221.083 514.974 221.255 514.71 221.425 514.458C221.677 514.083 221.925 513.719 222.176 513.344C222.346 513.092 222.515 512.84 222.688 512.577C222.808 512.397 222.937 512.213 223.057 512.034C223.067 512.017 223.086 511.995 223.084 511.976C223.092 511.971 223.096 511.978 223.093 511.99L226.073 516.818C226.087 516.84 226.093 516.867 226.118 516.873C226.117 516.906 226.088 516.892 226.075 516.889C225.983 516.893 225.892 516.897 225.795 516.894C223.793 516.933 221.779 516.969 219.777 517.008C219.759 517.006 219.742 517.007 219.725 517.009L219.725 517.009Z" fill="#FFDD63"/>
<path d="M229.625 512.131L229.633 512.126C229.642 512.141 229.636 512.166 229.638 512.185C229.455 515.018 229.277 517.858 229.093 520.69C229.076 520.984 229.05 521.283 229.032 521.577C229.02 521.574 229.016 521.567 229.011 521.559L226.664 517.758C226.866 517.372 227.065 516.997 227.268 516.61C228.048 515.12 228.834 513.638 229.607 512.153C229.619 512.155 229.623 512.143 229.625 512.131L229.625 512.131Z" fill="#FFDD63"/>
<path d="M223.096 511.98L219.651 506.4C219.637 506.377 219.62 506.367 219.622 506.335C222.746 507.944 225.866 509.547 228.983 511.16C229.012 511.174 229.054 511.19 229.079 511.216C228.95 511.244 228.818 511.252 228.692 511.267C228.537 511.289 228.371 511.308 228.216 511.33C228.116 511.338 228.014 511.36 227.914 511.368C227.748 511.388 227.586 511.414 227.419 511.433C227.324 511.449 227.225 511.458 227.125 511.468L226.483 511.549C226.376 511.562 226.269 511.576 226.154 511.594L225.69 511.66C225.593 511.676 225.495 511.687 225.397 511.694L224.755 511.775C224.648 511.789 224.541 511.803 224.426 511.821L223.962 511.887C223.855 511.9 223.756 511.91 223.649 511.923C223.462 511.944 223.275 511.965 223.086 511.997C223.104 511.975 223.096 511.98 223.096 511.98V511.98Z" fill="#FFDD63"/>
</g>
<path d="M311.375 538.045C305.94 549.331 319.723 568.839 342.16 581.593C364.597 594.346 387.185 595.543 392.632 584.251L398.273 573.387C403.709 562.1 389.654 542.306 367.212 529.54C344.775 516.786 321.985 515.363 316.537 526.654L311.518 537.767C311.476 537.862 311.417 537.95 311.364 538.05L311.375 538.045Z" fill="url(#paint14_linear_2566_2318)"/>
<mask id="mask0_2566_2318" style="mask-type:luminance" maskUnits="userSpaceOnUse" x="311" y="519" width="89" height="66">
<path d="M316.542 526.647C321.977 515.361 344.779 516.779 367.216 529.533C389.653 542.286 403.707 562.08 398.277 573.38L392.368 584.806L311.129 538.607L316.559 526.655L316.542 526.647Z" fill="white"/>
</mask>
<g mask="url(#mask0_2566_2318)">
<path d="M405.549 553.307L406.635 553.922L393.263 581.698L392.178 581.084L405.549 553.307ZM390.524 580.15L391.609 580.765L404.981 552.989L403.895 552.374L390.524 580.15ZM388.504 579.004L389.59 579.619L402.961 551.842L401.876 551.228L388.504 579.004ZM386.235 577.713L387.32 578.328L400.692 550.551L399.606 549.937L386.235 577.713ZM383.809 576.326L384.895 576.941L398.266 549.164L397.181 548.55L383.809 576.326ZM381.041 574.746L382.126 575.36L395.498 547.584L394.412 546.969L381.041 574.746ZM377.895 572.957L378.981 573.572L392.352 545.796L391.267 545.181L377.895 572.957ZM374.39 570.968L375.475 571.583L388.847 543.807L387.761 543.192L374.39 570.968ZM370.618 568.827L371.703 569.442L385.074 541.666L383.989 541.051L370.618 568.827ZM366.195 566.314L367.28 566.928L380.652 539.152L379.566 538.537L366.195 566.314ZM361.204 563.482L362.289 564.097L375.661 536.32L374.575 535.706L361.204 563.482ZM355.766 560.383L356.851 560.997L370.223 533.221L369.137 532.606L355.766 560.383ZM313.191 536.168L314.276 536.783L327.647 509.007L326.562 508.392L313.191 536.168ZM314.845 537.101L315.93 537.716L329.301 509.94L328.216 509.325L314.845 537.101ZM316.865 538.248L317.95 538.863L331.321 511.086L330.236 510.472L316.865 538.248ZM319.134 539.539L320.219 540.154L333.59 512.377L332.505 511.763L319.134 539.539ZM321.56 540.926L322.645 541.541L336.016 513.764L334.931 513.15L321.56 540.926ZM324.328 542.506L325.413 543.121L338.784 515.345L337.699 514.73L324.328 542.506ZM327.473 544.295L328.559 544.909L341.93 517.133L340.845 516.518L327.473 544.295ZM330.979 546.284L332.064 546.899L345.435 519.122L344.35 518.507L330.979 546.284ZM334.751 548.425L335.837 549.04L349.208 521.263L348.123 520.648L334.751 548.425ZM339.174 550.938L340.259 551.553L353.63 523.777L352.545 523.162L339.174 550.938ZM344.165 553.77L345.25 554.385L358.621 526.608L357.536 525.994L344.165 553.77ZM349.603 556.869L350.688 557.484L364.059 529.708L362.974 529.093L349.603 556.869Z" fill="url(#paint15_linear_2566_2318)"/>
<path d="M405.188 553.108L406.273 553.723L392.902 581.499L391.817 580.884L405.188 553.108ZM390.163 579.951L391.248 580.566L404.619 552.79L403.534 552.175L390.163 579.951ZM388.143 578.805L389.228 579.42L402.6 551.643L401.514 551.028L388.143 578.805ZM385.874 577.514L386.959 578.128L400.33 550.352L399.245 549.737L385.874 577.514ZM383.448 576.127L384.533 576.742L397.904 548.965L396.819 548.35L383.448 576.127ZM380.68 574.546L381.765 575.161L395.136 547.385L394.051 546.77L380.68 574.546ZM377.534 572.758L378.619 573.373L391.991 545.597L390.905 544.982L377.534 572.758ZM374.029 570.769L375.114 571.384L388.485 543.607L387.4 542.993L374.029 570.769ZM370.256 568.628L371.342 569.243L384.713 541.466L383.628 540.852L370.256 568.628ZM365.834 566.114L366.919 566.729L380.29 538.953L379.205 538.338L365.834 566.114ZM360.843 563.283L361.928 563.898L375.299 536.121L374.214 535.506L360.843 563.283ZM355.405 560.183L356.49 560.798L369.861 533.022L368.776 532.407L355.405 560.183ZM312.829 535.969L313.915 536.584L327.286 508.808L326.201 508.193L312.829 535.969ZM314.484 536.902L315.569 537.517L328.94 509.741L327.855 509.126L314.484 536.902ZM316.503 538.049L317.589 538.664L330.96 510.887L329.875 510.272L316.503 538.049ZM318.772 539.34L319.858 539.955L333.229 512.178L332.144 511.563L318.772 539.34ZM321.198 540.727L322.284 541.342L335.655 513.565L334.57 512.95L321.198 540.727ZM323.967 542.307L325.052 542.922L338.423 515.146L337.338 514.531L323.967 542.307ZM327.112 544.095L328.197 544.71L341.569 516.934L340.483 516.319L327.112 544.095ZM330.618 546.085L331.703 546.699L345.074 518.923L343.989 518.308L330.618 546.085ZM334.39 548.225L335.475 548.84L348.847 521.064L347.761 520.449L334.39 548.225ZM338.812 550.739L339.898 551.354L353.269 523.577L352.184 522.963L338.812 550.739ZM343.804 553.571L344.889 554.186L358.26 526.409L357.175 525.794L343.804 553.571ZM349.241 556.67L350.327 557.285L363.698 529.509L362.613 528.894L349.241 556.67Z" fill="url(#paint16_linear_2566_2318)"/>
</g>
<path d="M361.875 540.679C339.438 527.916 316.843 526.722 311.407 538.012C305.971 549.302 319.753 568.802 342.19 581.565C364.627 594.328 387.222 595.522 392.658 584.232C398.094 572.941 384.312 553.442 361.875 540.679Z" fill="url(#paint17_linear_2566_2318)"/>
<path d="M361.385 541.695C339.652 529.333 317.79 528.128 312.554 539.003C307.318 549.878 320.691 568.716 342.423 581.079C364.155 593.441 386.017 594.646 391.253 583.771C396.49 572.895 383.117 554.058 361.385 541.695Z" fill="url(#paint18_linear_2566_2318)"/>
<path d="M311.375 538.045C305.94 549.331 319.723 568.839 342.16 581.593C364.597 594.346 387.185 595.543 392.632 584.251L398.273 573.387C403.709 562.1 389.654 542.306 367.212 529.54C344.775 516.786 321.985 515.363 316.537 526.654L311.518 537.767C311.476 537.862 311.417 537.95 311.364 538.05L311.375 538.045Z" fill="url(#paint19_linear_2566_2318)"/>
<path d="M358.846 546.922C376.425 556.92 385.33 570.266 381.49 578.248C377.65 586.23 361.234 585.174 344.909 575.881C328.583 566.589 318.424 552.537 322.264 544.555C326.104 536.573 341.261 536.912 358.846 546.922Z" fill="#FFF399"/>
<path d="M358.61 547.423C374.936 556.715 385.154 570.649 381.38 578.495C377.605 586.341 361.249 585.166 344.912 575.879C328.586 566.587 318.368 552.653 322.142 544.807C325.917 536.961 342.273 538.136 358.61 547.423Z" fill="url(#paint20_linear_2566_2318)"/>
<path d="M345.474 574.695C329.747 565.753 319.959 551.958 322.614 543.983C322.437 544.246 322.276 544.516 322.139 544.806C318.365 552.652 328.572 566.591 344.909 575.878C361.234 585.171 377.585 586.332 381.377 578.494C381.514 578.204 381.633 577.907 381.736 577.602C377.229 584.521 361.22 583.644 345.492 574.703L345.474 574.695Z" fill="url(#paint21_linear_2566_2318)"/>
<path d="M358.612 547.423C374.938 556.716 385.156 570.649 381.382 578.495C377.607 586.341 361.251 585.167 344.914 575.879C328.588 566.587 318.37 552.653 322.144 544.807C325.919 536.961 342.275 538.136 358.612 547.423Z" fill="url(#paint22_linear_2566_2318)"/>
<g filter="url(#filter5_d_2566_2318)">
<path d="M336.754 557.439L336.769 557.446C336.848 557.471 336.938 557.514 337.026 557.557L347.791 562.761C347.845 562.801 347.848 562.842 347.864 562.89C347.918 563.199 347.961 563.491 348.001 563.792C348.064 564.214 348.139 564.653 348.202 565.075L348.444 566.607C348.506 567.024 348.571 567.442 348.638 567.859C348.725 568.359 348.79 568.863 348.876 569.362C348.939 569.784 349.018 570.213 349.076 570.644C349.132 570.995 349.172 571.338 349.233 571.677C349.241 571.706 349.242 571.734 349.236 571.76C349.231 571.771 349.231 571.771 349.212 571.776L348.662 571.145C347.612 569.938 346.573 568.748 345.525 567.541C344.399 566.256 343.278 564.959 342.153 563.673C341.115 562.484 340.08 561.284 339.042 560.095C338.284 559.229 337.529 558.353 336.77 557.486C336.745 557.462 336.734 557.443 336.705 557.429L336.71 557.418C336.719 557.436 336.739 557.432 336.754 557.439V557.439Z" fill="#EAA728"/>
<path d="M354.769 557.878L354.789 557.874L355.423 560.162L357.415 567.35C357.418 567.376 357.425 567.402 357.436 567.428C357.423 567.461 357.379 567.44 357.364 567.432L348.003 562.907C347.959 562.886 347.9 562.857 347.859 562.824C347.804 562.784 347.833 562.758 347.86 562.731C348.008 562.627 348.161 562.512 348.309 562.409C348.754 562.099 349.199 561.788 349.629 561.471C350.006 561.195 350.394 560.937 350.772 560.661C351.149 560.385 351.541 560.117 351.918 559.841C352.243 559.608 352.588 559.37 352.912 559.136C353.237 558.902 353.582 558.665 353.906 558.431C354.16 558.244 354.428 558.064 354.681 557.876C354.725 557.897 354.745 557.893 354.769 557.878V557.878Z" fill="#EAA728"/>
<path d="M366.696 571.912C366.711 571.919 366.722 571.938 366.737 571.945L366.732 571.957C366.702 571.942 366.678 571.958 366.643 571.955C365.065 572.027 363.472 572.093 361.893 572.165C360.281 572.233 358.649 572.307 357.036 572.376C355.477 572.444 353.898 572.517 352.34 572.585C351.924 572.601 351.523 572.622 351.108 572.637C351.073 572.634 351.053 572.637 351 572.638C351.013 572.605 351.052 572.596 351.071 572.593C352.225 571.977 353.375 571.375 354.529 570.76C355.861 570.057 357.188 569.365 358.52 568.661L359.198 568.301C359.237 568.293 359.267 568.308 359.296 568.322L366.492 571.801C366.566 571.837 366.641 571.873 366.696 571.912V571.912Z" fill="#EAA728"/>
<path d="M349.239 571.802L349.224 571.795C349.159 571.333 349.075 570.875 349.01 570.412C348.912 569.812 348.828 569.219 348.729 568.619C348.661 568.168 348.581 567.699 348.512 567.247C348.406 566.576 348.31 565.923 348.204 565.252C348.135 564.801 348.066 564.351 347.987 563.882C347.936 563.561 347.891 563.228 347.841 562.907C347.835 562.878 347.833 562.836 347.808 562.812C347.813 562.799 347.827 562.806 347.837 562.826L357.318 567.409C357.362 567.43 357.402 567.462 357.441 567.454C357.478 567.499 357.423 567.5 357.403 567.504C357.288 567.569 357.173 567.634 357.043 567.693C354.47 569.049 351.879 570.411 349.306 571.768C349.281 571.776 349.258 571.788 349.239 571.803L349.239 571.802Z" fill="#EAA728"/>
<path d="M356.546 558.764L356.551 558.751C356.58 558.765 356.601 558.803 356.625 558.828C359.663 562.776 362.714 566.73 365.75 570.677C366.067 571.086 366.38 571.506 366.697 571.916C366.677 571.92 366.663 571.913 366.648 571.906L359.183 568.297C359 567.643 358.826 567.008 358.644 566.352C357.941 563.83 357.254 561.315 356.547 558.804C356.566 558.8 356.557 558.782 356.546 558.763L356.546 558.764Z" fill="#EAA728"/>
<path d="M347.833 562.81L336.876 557.513C336.832 557.491 336.797 557.488 336.762 557.444C342.708 557.583 348.641 557.716 354.581 557.866C354.636 557.866 354.709 557.86 354.772 557.878C354.636 558.001 354.472 558.097 354.324 558.2C354.147 558.331 353.952 558.464 353.775 558.595C353.654 558.671 353.545 558.767 353.425 558.843C353.23 558.978 353.048 559.119 352.853 559.254C352.747 559.337 352.628 559.414 352.508 559.492L351.762 560.02C351.638 560.108 351.514 560.197 351.385 560.296L350.855 560.687C350.746 560.771 350.631 560.85 350.511 560.924L349.765 561.453C349.64 561.541 349.516 561.629 349.388 561.729L348.858 562.12C348.732 562.207 348.614 562.285 348.489 562.372C348.269 562.522 348.049 562.673 347.839 562.84C347.838 562.798 347.833 562.81 347.833 562.81V562.81Z" fill="#EAA728"/>
</g>
<path d="M635.368 86.4507C617.359 73.7735 581.931 93.0605 556.278 129.535C530.625 166.009 524.417 205.84 542.433 218.54L559.692 231.47C577.701 244.148 613.662 224.454 639.337 187.973C664.99 151.499 671.618 111.369 653.602 98.6699L635.809 86.7785C635.657 86.6789 635.52 86.5503 635.361 86.4285L635.368 86.4507Z" fill="url(#paint23_linear_2566_2318)"/>
<mask id="mask1_2566_2318" style="mask-type:luminance" maskUnits="userSpaceOnUse" x="541" y="85" width="123" height="151">
<path d="M653.618 98.6945C671.627 111.372 665.006 151.524 639.352 187.998C613.699 224.472 577.738 244.165 559.707 231.495L541.551 217.938L634.471 85.8779L653.602 98.7235L653.618 98.6945Z" fill="white"/>
</mask>
<g mask="url(#mask1_2566_2318)">
<path d="M592.177 249.776L590.94 251.541L546.619 220.351L547.856 218.586L592.177 249.776ZM549.736 215.896L548.498 217.66L592.819 248.85L594.057 247.085L549.736 215.896ZM552.042 212.612L550.805 214.377L595.126 245.566L596.363 243.801L552.042 212.612ZM554.639 208.923L553.401 210.688L597.722 241.878L598.96 240.113L554.639 208.923ZM557.426 204.982L556.188 206.747L600.509 237.936L601.747 236.171L557.426 204.982ZM560.602 200.484L559.365 202.248L603.686 233.438L604.923 231.673L560.602 200.484ZM564.199 195.37L562.962 197.135L607.283 228.324L608.52 226.56L564.199 195.37ZM568.201 189.671L566.964 191.435L611.285 222.625L612.523 220.86L568.201 189.671ZM572.509 183.537L571.272 185.302L615.593 216.491L616.83 214.727L572.509 183.537ZM577.565 176.348L576.327 178.113L620.649 209.302L621.886 207.537L577.565 176.348ZM583.262 168.233L582.025 169.997L626.346 201.187L627.584 199.422L583.262 168.233ZM589.494 159.395L588.256 161.16L632.578 192.349L633.815 190.584L589.494 159.395ZM638.195 90.1862L636.958 91.951L681.279 123.14L682.516 121.376L638.195 90.1862ZM636.316 92.877L635.078 94.6419L679.4 125.831L680.637 124.067L636.316 92.877ZM634.009 96.1607L632.772 97.9256L677.093 129.115L678.33 127.35L634.009 96.1607ZM631.413 99.8493L630.175 101.614L674.497 132.804L675.734 131.039L631.413 99.8493ZM628.626 103.791L627.388 105.556L671.71 136.745L672.947 134.98L628.626 103.791ZM625.449 108.289L624.212 110.054L668.533 141.243L669.77 139.479L625.449 108.289ZM621.852 113.403L620.615 115.167L664.936 146.357L666.173 144.592L621.852 113.403ZM617.85 119.102L616.613 120.867L660.934 152.056L662.171 150.292L617.85 119.102ZM613.542 125.235L612.305 127L656.626 158.19L657.864 156.425L613.542 125.235ZM608.487 132.425L607.249 134.19L651.57 165.379L652.808 163.614L608.487 132.425ZM602.789 140.54L601.552 142.305L645.873 173.494L647.11 171.729L602.789 140.54ZM596.558 149.378L595.32 151.143L639.641 182.332L640.879 180.567L596.558 149.378Z" fill="url(#paint24_linear_2566_2318)"/>
<path d="M592.578 249.193L591.34 250.958L547.019 219.769L548.257 218.004L592.578 249.193ZM550.136 215.313L548.899 217.078L593.22 248.267L594.457 246.502L550.136 215.313ZM552.442 212.029L551.205 213.794L595.526 244.984L596.764 243.219L552.442 212.029ZM555.039 208.341L553.802 210.105L598.123 241.295L599.36 239.53L555.039 208.341ZM557.826 204.399L556.589 206.164L600.91 237.353L602.147 235.589L557.826 204.399ZM561.003 199.901L559.765 201.666L604.086 232.855L605.324 231.09L561.003 199.901ZM564.6 194.787L563.362 196.552L607.683 227.742L608.921 225.977L564.6 194.787ZM568.602 189.088L567.364 190.853L611.686 222.042L612.923 220.277L568.602 189.088ZM572.909 182.954L571.672 184.719L615.993 215.909L617.231 214.144L572.909 182.954ZM577.965 175.765L576.728 177.53L621.049 208.719L622.286 206.955L577.965 175.765ZM583.663 167.65L582.425 169.415L626.747 200.604L627.984 198.839L583.663 167.65ZM589.894 158.812L588.657 160.577L632.978 191.766L634.215 190.001L589.894 158.812ZM638.595 89.6034L637.358 91.3682L681.679 122.558L682.917 120.793L638.595 89.6034ZM636.716 92.2943L635.479 94.0591L679.8 125.249L681.037 123.484L636.716 92.2943ZM634.41 95.5779L633.172 97.3428L677.493 128.532L678.731 126.767L634.41 95.5779ZM631.813 99.2665L630.576 101.031L674.897 132.221L676.134 130.456L631.813 99.2665ZM629.026 103.208L627.789 104.973L672.11 136.162L673.347 134.397L629.026 103.208ZM625.849 107.706L624.612 109.471L668.933 140.661L670.171 138.896L625.849 107.706ZM622.252 112.82L621.015 114.585L665.336 145.774L666.574 144.009L622.252 112.82ZM618.25 118.519L617.013 120.284L661.334 151.474L662.572 149.709L618.25 118.519ZM613.943 124.653L612.705 126.418L657.027 157.607L658.264 155.842L613.943 124.653ZM608.887 131.842L607.649 133.607L651.971 164.796L653.208 163.031L608.887 131.842ZM603.189 139.957L601.952 141.722L646.273 172.912L647.51 171.147L603.189 139.957ZM596.958 148.795L595.72 150.56L640.042 181.75L641.279 179.985L596.958 148.795Z" fill="url(#paint25_linear_2566_2318)"/>
</g>
<path d="M621.556 175.51C647.226 139.038 653.43 99.1933 635.415 86.514C617.4 73.8347 581.987 93.1225 556.317 129.594C530.648 166.066 524.443 205.911 542.458 218.591C560.474 231.27 595.887 211.982 621.556 175.51Z" fill="url(#paint26_linear_2566_2318)"/>
<path d="M619.934 174.37C644.797 139.044 650.885 100.505 633.532 88.2921C616.179 76.0788 581.956 94.8157 557.093 130.142C532.23 165.468 526.142 204.007 543.495 216.22C560.848 228.433 595.071 209.696 619.934 174.37Z" fill="url(#paint27_linear_2566_2318)"/>
<path d="M635.368 86.4507C617.359 73.7735 581.931 93.0605 556.278 129.535C530.625 166.009 524.417 205.84 542.433 218.54L559.692 231.47C577.701 244.148 613.662 224.454 639.337 187.973C664.99 151.499 671.618 111.369 653.602 98.6699L635.809 86.7785C635.657 86.6789 635.52 86.5503 635.361 86.4285L635.368 86.4507Z" fill="url(#paint28_linear_2566_2318)"/>
<path d="M611.601 168.461C591.493 197.036 567.352 209.3 554.615 200.341C541.879 191.383 546.705 162.486 565.392 135.95C584.079 109.414 609.641 95.1105 622.378 104.069C635.114 113.027 631.732 139.878 611.601 168.461Z" fill="#FFF399"/>
<path d="M610.797 167.904C592.11 194.44 566.736 208.881 554.216 200.075C541.697 191.27 546.711 162.509 565.391 135.951C584.078 109.415 609.452 94.9748 621.972 103.78C634.492 112.586 629.478 141.346 610.797 167.904Z" fill="url(#paint29_linear_2566_2318)"/>
<path d="M567.28 137.273C585.265 111.706 610.326 97.9938 623.271 104.845C622.861 104.459 622.436 104.102 621.973 103.781C609.453 94.9754 584.072 109.394 565.392 135.952C546.704 162.488 541.713 191.241 554.217 200.076C554.68 200.397 555.158 200.689 555.652 200.951C544.83 191.092 549.279 162.87 567.264 137.302L567.28 137.273Z" fill="url(#paint30_linear_2566_2318)"/>
<path d="M610.797 167.904C592.11 194.44 566.736 208.881 554.216 200.075C541.697 191.27 546.711 162.509 565.391 135.951C584.078 109.415 609.452 94.9748 621.972 103.78C634.492 112.586 629.478 141.346 610.797 167.904Z" fill="url(#paint31_linear_2566_2318)"/>
<g filter="url(#filter6_d_2566_2318)">
<path d="M597.974 126.379L597.959 126.404C597.903 126.538 597.813 126.685 597.725 126.831L586.959 144.574C586.881 144.661 586.811 144.655 586.726 144.67C586.196 144.684 585.697 144.683 585.182 144.672C584.46 144.672 583.705 144.687 582.983 144.688L580.356 144.708C579.642 144.706 578.927 144.71 578.21 144.719C577.352 144.739 576.491 144.721 575.634 144.739C574.912 144.74 574.174 144.765 573.436 144.753C572.835 144.758 572.249 144.739 571.667 144.755C571.617 144.763 571.569 144.757 571.527 144.739C571.508 144.728 571.508 144.728 571.505 144.692L572.669 143.883C574.898 142.34 577.095 140.811 579.325 139.27C581.699 137.613 584.092 135.966 586.467 134.31C588.663 132.783 590.878 131.262 593.074 129.736C594.673 128.619 596.29 127.513 597.891 126.394C597.937 126.356 597.97 126.342 598 126.295L598.018 126.306C597.986 126.318 597.989 126.354 597.974 126.379V126.379Z" fill="#EAA728"/>
<path d="M593.895 158.284L593.897 158.32L589.924 158.837L577.443 160.456C577.4 160.455 577.354 160.461 577.308 160.474C577.255 160.441 577.299 160.368 577.314 160.343L586.675 144.914C586.719 144.841 586.779 144.744 586.843 144.68C586.921 144.593 586.959 144.651 586.999 144.706C587.147 144.998 587.312 145.301 587.458 145.591C587.898 146.465 588.339 147.339 588.794 148.188C589.189 148.931 589.552 149.69 589.946 150.435C590.341 151.179 590.721 151.948 591.116 152.692C591.448 153.331 591.784 154.008 592.119 154.647C592.452 155.288 592.789 155.965 593.122 156.602C593.39 157.104 593.645 157.629 593.914 158.128C593.87 158.201 593.873 158.237 593.895 158.284V158.284Z" fill="#EAA728"/>
<path d="M568.03 175.736C568.015 175.761 567.981 175.775 567.966 175.8L567.948 175.788C567.978 175.738 567.956 175.691 567.968 175.63C568.138 172.806 568.324 169.957 568.495 167.131C568.679 164.247 568.858 161.326 569.04 158.441C569.215 155.651 569.386 152.825 569.56 150.037C569.611 149.293 569.649 148.576 569.701 147.833C569.713 147.772 569.711 147.737 569.719 147.642C569.773 147.674 569.78 147.745 569.782 147.78C570.606 149.996 571.408 152.2 572.229 154.416C573.167 156.972 574.087 159.515 575.026 162.072L575.507 163.372C575.512 163.443 575.481 163.493 575.452 163.541L568.255 175.403C568.181 175.526 568.106 175.648 568.03 175.736V175.736Z" fill="#EAA728"/>
<path d="M571.454 144.736L571.47 144.711C572.259 144.718 573.047 144.692 573.839 144.699C574.868 144.686 575.883 144.695 576.912 144.679C577.685 144.678 578.49 144.663 579.265 144.66C580.415 144.652 581.533 144.655 582.683 144.647C583.456 144.643 584.227 144.641 585.033 144.626C585.583 144.621 586.152 144.63 586.701 144.627C586.752 144.624 586.822 144.632 586.868 144.595C586.888 144.607 586.874 144.63 586.839 144.643L577.358 160.269C577.314 160.342 577.252 160.405 577.259 160.477C577.177 160.529 577.185 160.432 577.182 160.396C577.093 160.174 577.005 159.952 576.93 159.705C575.122 154.77 573.308 149.799 571.499 144.863C571.49 144.817 571.474 144.774 571.453 144.735L571.454 144.736Z" fill="#EAA728"/>
<path d="M592.068 161.204L592.088 161.216C592.059 161.264 591.991 161.291 591.944 161.328C584.729 165.672 577.5 170.04 570.285 174.381C569.538 174.836 568.772 175.28 568.023 175.734C568.019 175.697 568.033 175.674 568.048 175.649L575.514 163.345C576.65 163.194 577.753 163.055 578.892 162.905C583.272 162.331 587.637 161.782 591.999 161.196C592.003 161.23 592.036 161.218 592.069 161.205L592.068 161.204Z" fill="#EAA728"/>
<path d="M586.87 144.639L597.828 126.578C597.873 126.505 597.884 126.444 597.966 126.393C596.627 136.926 595.303 147.436 593.948 157.955C593.938 158.051 593.934 158.183 593.891 158.291C593.711 158.016 593.579 157.7 593.433 157.409C593.245 157.059 593.056 156.677 592.869 156.326C592.763 156.091 592.622 155.872 592.515 155.639C592.324 155.256 592.12 154.895 591.929 154.512C591.808 154.302 591.701 154.069 591.593 153.835L590.841 152.368C590.715 152.124 590.59 151.88 590.446 151.624L589.885 150.578C589.764 150.361 589.652 150.135 589.55 149.902L588.798 148.435C588.673 148.191 588.547 147.947 588.403 147.691L587.842 146.645C587.718 146.398 587.61 146.168 587.485 145.921C587.273 145.491 587.061 145.06 586.817 144.642C586.888 144.651 586.87 144.639 586.87 144.639V144.639Z" fill="#EAA728"/>
</g>
<path d="M52.5844 294.664C36.3747 302.173 35.5553 334.883 50.774 367.697C65.9927 400.512 91.4562 421.027 107.684 413.522L123.768 406.641C139.977 399.132 140.728 365.883 125.513 333.05C110.295 300.236 84.7916 279.304 68.5636 286.81L52.9934 294.487C52.8618 294.553 52.716 294.597 52.566 294.659L52.5844 294.664Z" fill="url(#paint32_linear_2566_2318)"/>
<mask id="mask2_2566_2318" style="mask-type:luminance" maskUnits="userSpaceOnUse" x="51" y="285" width="86" height="129">
<path d="M68.5818 286.809C84.7914 279.3 110.313 300.235 125.532 333.049C140.75 365.864 140 399.113 123.786 406.641L106.899 413.897L51.8129 295.062L68.5959 286.832L68.5818 286.809Z" fill="white"/>
</mask>
<g mask="url(#mask2_2566_2318)">
<path d="M149.801 391.246L150.539 392.831L110.653 411.317L109.915 409.732L149.801 391.246ZM108.787 407.32L109.524 408.905L149.41 390.42L148.672 388.835L108.787 407.32ZM107.415 404.368L108.153 405.953L148.039 387.467L147.301 385.882L107.415 404.368ZM105.877 401.048L106.615 402.633L146.501 384.147L145.763 382.562L105.877 401.048ZM104.239 397.492L104.977 399.077L144.862 380.591L144.124 379.006L104.239 397.492ZM102.367 393.436L103.105 395.021L142.991 376.535L142.253 374.95L102.367 393.436ZM100.233 388.835L100.971 390.42L140.857 371.934L140.119 370.349L100.233 388.835ZM97.8528 383.712L98.5908 385.297L138.477 366.811L137.739 365.226L97.8528 383.712ZM95.2911 378.198L96.0291 379.784L135.915 361.298L135.177 359.713L95.2911 378.198ZM92.2912 371.731L93.0292 373.316L132.915 354.83L132.177 353.245L92.2912 371.731ZM88.9011 364.437L89.6391 366.022L129.525 347.536L128.787 345.951L88.9011 364.437ZM85.2198 356.475L85.9577 358.06L125.844 339.574L125.106 337.989L85.2198 356.475ZM56.353 294.194L57.091 295.779L96.9768 277.293L96.2389 275.708L56.353 294.194ZM57.4812 296.605L58.2191 298.19L98.105 279.705L97.367 278.12L57.4812 296.605ZM58.8525 299.557L59.5904 301.142L99.4763 282.657L98.7384 281.072L58.8525 299.557ZM60.3906 302.878L61.1285 304.463L101.014 285.977L100.276 284.392L60.3906 302.878ZM62.0291 306.434L62.767 308.019L102.653 289.533L101.915 287.948L62.0291 306.434ZM63.9009 310.49L64.6388 312.075L104.525 293.589L103.787 292.004L63.9009 310.49ZM66.0341 315.091L66.7721 316.676L106.658 298.19L105.92 296.605L66.0341 315.091ZM68.4148 320.214L69.1528 321.799L109.039 303.313L108.301 301.728L68.4148 320.214ZM70.9765 325.727L71.7145 327.312L111.6 308.826L110.862 307.241L70.9765 325.727ZM73.9764 332.195L74.7144 333.78L114.6 315.294L113.862 313.709L73.9764 332.195ZM77.3666 339.489L78.1045 341.074L117.99 322.588L117.252 321.003L77.3666 339.489ZM81.0479 347.45L81.7859 349.036L121.672 330.55L120.934 328.965L81.0479 347.45Z" fill="url(#paint33_linear_2566_2318)"/>
<path d="M149.554 390.727L150.292 392.312L110.407 410.798L109.669 409.213L149.554 390.727ZM108.54 406.802L109.278 408.387L149.164 389.901L148.426 388.316L108.54 406.802ZM107.169 403.85L107.907 405.435L147.793 386.949L147.055 385.364L107.169 403.85ZM105.631 400.529L106.369 402.114L146.255 383.629L145.517 382.044L105.631 400.529ZM103.992 396.973L104.73 398.558L144.616 380.072L143.878 378.487L103.992 396.973ZM102.121 392.917L102.859 394.502L142.745 376.016L142.007 374.431L102.121 392.917ZM99.9874 388.316L100.725 389.901L140.611 371.416L139.873 369.83L99.9874 388.316ZM97.6067 383.193L98.3447 384.778L138.231 366.293L137.493 364.707L97.6067 383.193ZM95.045 377.68L95.783 379.265L135.669 360.779L134.931 359.194L95.045 377.68ZM92.0451 371.212L92.7831 372.797L132.669 354.311L131.931 352.726L92.0451 371.212ZM88.655 363.918L89.393 365.503L129.279 347.018L128.541 345.433L88.655 363.918ZM84.9737 355.956L85.7116 357.541L125.598 339.056L124.86 337.471L84.9737 355.956ZM56.1069 293.675L56.8448 295.26L96.7307 276.774L95.9928 275.189L56.1069 293.675ZM57.235 296.087L57.973 297.672L97.8589 279.186L97.1209 277.601L57.235 296.087ZM58.6064 299.039L59.3443 300.624L99.2302 282.138L98.4922 280.553L58.6064 299.039ZM60.1445 302.359L60.8825 303.944L100.768 285.458L100.03 283.873L60.1445 302.359ZM61.783 305.915L62.5209 307.5L102.407 289.014L101.669 287.429L61.783 305.915ZM63.6547 309.971L64.3927 311.556L104.279 293.07L103.541 291.485L63.6547 309.971ZM65.788 314.572L66.526 316.157L106.412 297.671L105.674 296.086L65.788 314.572ZM68.1688 319.695L68.9067 321.28L108.793 302.794L108.055 301.209L68.1688 319.695ZM70.7304 325.208L71.4684 326.794L111.354 308.308L110.616 306.723L70.7304 325.208ZM73.7303 331.676L74.4683 333.261L114.354 314.775L113.616 313.19L73.7303 331.676ZM77.1205 338.97L77.8584 340.555L117.744 322.069L117.006 320.484L77.1205 338.97ZM80.8018 346.932L81.5398 348.517L121.426 330.031L120.688 328.446L80.8018 346.932Z" fill="url(#paint34_linear_2566_2318)"/>
</g>
<path d="M109.548 340.486C94.3369 307.662 68.8625 287.143 52.6489 294.656C36.4353 302.17 35.6222 334.87 50.8328 367.694C66.0434 400.519 91.5178 421.038 107.731 413.524C123.945 406.011 124.758 373.311 109.548 340.486Z" fill="url(#paint35_linear_2566_2318)"/>
<path d="M108.086 341.163C93.3528 309.369 68.7488 289.462 53.1311 296.699C37.5134 303.937 36.7961 335.577 51.529 367.371C66.2618 399.164 90.8657 419.071 106.483 411.834C122.101 404.597 122.818 372.956 108.086 341.163Z" fill="url(#paint36_linear_2566_2318)"/>
<path d="M52.5844 294.664C36.3747 302.173 35.5553 334.883 50.774 367.697C65.9927 400.512 91.4562 421.027 107.684 413.522L123.768 406.641C139.977 399.132 140.728 365.883 125.513 333.05C110.295 300.236 84.7916 279.304 68.5636 286.81L52.9934 294.487C52.8618 294.553 52.716 294.597 52.566 294.659L52.5844 294.664Z" fill="url(#paint37_linear_2566_2318)"/>
<path d="M100.554 344.619C112.473 370.335 111.297 392.267 99.8381 397.581C88.3793 402.896 70.0364 387.785 58.974 363.895C47.9117 340.006 48.231 316.247 59.6898 310.933C71.1487 305.619 88.6391 318.885 100.554 344.619Z" fill="#FFF399"/>
<path d="M99.8346 344.961C110.897 368.85 110.75 392.532 99.4867 397.756C88.2232 402.98 70.053 387.793 58.9722 363.899C47.9098 340.009 48.0565 316.327 59.32 311.103C70.5836 305.88 88.7538 321.066 99.8346 344.961Z" fill="url(#paint38_linear_2566_2318)"/>
<path d="M60.6688 363.104C50.0022 340.1 50.5335 316.934 60.5962 310.619C60.159 310.75 59.7358 310.904 59.3226 311.099C48.0591 316.323 47.894 340.001 58.9748 363.895C70.0371 387.785 88.2116 402.953 99.4893 397.752C99.9025 397.557 100.302 397.339 100.687 397.099C89.3713 400.702 71.3494 386.131 60.6829 363.127L60.6688 363.104Z" fill="url(#paint39_linear_2566_2318)"/>
<path d="M99.8395 344.958C110.902 368.848 110.755 392.529 99.4916 397.753C88.2281 402.977 70.0578 387.79 58.9771 363.896C47.9147 340.006 48.0614 316.324 59.3249 311.101C70.5885 305.877 88.7587 321.064 99.8395 344.958Z" fill="url(#paint40_linear_2566_2318)"/>
<g filter="url(#filter7_d_2566_2318)">
<path d="M65.4631 337.124L65.4745 337.145C65.5459 337.238 65.6133 337.361 65.6798 337.482L73.7781 352.241C73.8074 352.331 73.775 352.378 73.7507 352.443C73.5454 352.822 73.3428 353.172 73.126 353.529C72.8333 354.037 72.5379 354.573 72.2452 355.08L71.1941 356.934C70.9033 357.435 70.6158 357.939 70.3317 358.446C69.9976 359.057 69.6359 359.654 69.3009 360.264C69.0082 360.771 68.7268 361.3 68.4191 361.813C68.1791 362.238 67.9277 362.642 67.703 363.058C67.688 363.096 67.6648 363.127 67.635 363.149C67.6196 363.157 67.6196 363.157 67.5928 363.145L67.497 361.999C67.3168 359.807 67.1339 357.644 66.9559 355.453C66.7543 353.113 66.5681 350.765 66.3678 348.424C66.1858 346.262 66.0161 344.089 65.8341 341.928C65.6984 340.351 65.5768 338.767 65.4401 337.188C65.4323 337.141 65.4363 337.111 65.4145 337.072L65.4298 337.063C65.4249 337.091 65.4517 337.103 65.4631 337.124V337.124Z" fill="#EAA728"/>
<path d="M86.2219 352.931L86.2474 352.944L84.9994 355.945L81.0749 365.369C81.0564 365.399 81.0421 365.434 81.0326 365.471C80.9878 365.496 80.9546 365.435 80.9432 365.414L73.9012 352.581C73.868 352.52 73.8233 352.439 73.8045 352.368C73.7752 352.278 73.8314 352.274 73.8866 352.269C74.1512 352.283 74.4311 352.29 74.6944 352.305C75.4868 352.35 76.2791 352.395 77.0601 352.419C77.7428 352.444 78.4228 352.496 79.1064 352.522C79.7891 352.546 80.4832 352.591 81.1658 352.615C81.7499 352.642 82.3619 352.68 82.9463 352.704C83.5316 352.729 84.1436 352.767 84.7267 352.792C85.1879 352.807 85.6595 352.841 86.1198 352.854C86.153 352.915 86.1798 352.927 86.2219 352.931V352.931Z" fill="#EAA728"/>
<path d="M87.9926 378.176C88.004 378.197 88.0001 378.226 88.0115 378.247L87.9961 378.255C87.9733 378.214 87.9312 378.21 87.893 378.177C85.9783 376.912 84.0522 375.626 82.1365 374.359C80.1849 373.06 78.2052 371.75 76.2523 370.452C74.3634 369.198 72.4477 367.931 70.5598 366.678C70.0582 366.341 69.5693 366.024 69.069 365.685C69.0309 365.652 69.0054 365.639 68.9414 365.595C68.9862 365.571 69.0388 365.594 69.0642 365.607C70.9554 365.927 72.8286 366.258 74.7185 366.579C76.8944 366.957 79.054 367.342 81.2312 367.72L82.3393 367.909C82.3915 367.935 82.4143 367.976 82.4362 368.016L87.85 377.883C87.906 377.985 87.962 378.087 87.9926 378.176V378.176Z" fill="#EAA728"/>
<path d="M67.6049 363.198L67.5935 363.177C67.9184 362.625 68.22 362.061 68.5461 361.508C68.9541 360.779 69.3725 360.07 69.7782 359.341C70.0912 358.797 70.4069 358.225 70.7189 357.68C71.1796 356.869 71.6354 356.085 72.0961 355.273C72.4068 354.729 72.7186 354.186 73.0342 353.614C73.254 353.226 73.4913 352.83 73.712 352.443C73.73 352.406 73.7647 352.36 73.7569 352.312C73.7736 352.303 73.784 352.322 73.7788 352.352L80.911 365.35C80.9442 365.411 80.9634 365.479 81.0169 365.504C81.0204 365.583 80.9555 365.538 80.9287 365.525C80.737 365.498 80.5453 365.47 80.3409 365.422C76.1409 364.69 71.9137 363.949 67.7124 363.218C67.6758 363.206 67.6392 363.199 67.6037 363.199L67.6049 363.198Z" fill="#EAA728"/>
<path d="M87.5331 355.397L87.5498 355.388C87.5716 355.428 87.5637 355.487 87.5702 355.535C87.696 362.365 87.8323 369.215 87.956 376.044C87.9723 376.753 87.9733 377.471 87.9883 378.182C87.9616 378.169 87.9511 378.15 87.9397 378.13L82.3236 367.894C82.6782 367.035 83.0279 366.204 83.3851 365.343C84.758 362.033 86.1422 358.744 87.4997 355.443C87.5255 355.453 87.5304 355.426 87.5344 355.397L87.5331 355.397Z" fill="#EAA728"/>
<path d="M73.7865 352.331L65.5429 337.307C65.5096 337.246 65.4715 337.213 65.4689 337.136C72.3253 342.347 79.1713 347.54 86.0114 352.759C86.075 352.805 86.1658 352.861 86.2245 352.935C85.9582 352.95 85.6822 352.914 85.419 352.899C85.0969 352.889 84.7517 352.866 84.4296 352.856C84.2216 352.835 84.0106 352.845 83.8035 352.826C83.4569 352.804 83.1208 352.802 82.7743 352.78C82.5776 352.78 82.3706 352.761 82.1622 352.742L80.8266 352.675C80.6042 352.664 80.3817 352.654 80.144 352.651L79.1814 352.621C78.9796 352.618 78.7758 352.605 78.5706 352.582L77.235 352.515C77.0126 352.504 76.7901 352.494 76.5523 352.491L75.5898 352.461C75.3664 352.448 75.1602 352.431 74.9369 352.418C74.5482 352.392 74.1595 352.367 73.7672 352.368C73.8019 352.322 73.7865 352.331 73.7865 352.331V352.331Z" fill="#EAA728"/>
</g>
<path d="M270.997 19.1878C262.048 11.3066 241.846 19.6077 225.896 37.7341C209.946 55.8604 204.266 76.9355 213.217 84.8291L221.748 92.8026C230.697 100.684 251.21 92.1953 267.172 74.0666C283.122 55.9403 289.046 34.7291 280.094 26.8356L271.215 19.39C271.139 19.3275 271.073 19.2503 270.994 19.1754L270.997 19.1878Z" fill="url(#paint41_linear_2566_2318)"/>
<mask id="mask3_2566_2318" style="mask-type:luminance" maskUnits="userSpaceOnUse" x="212" y="18" width="73" height="78">
<path d="M280.1 26.8463C289.049 34.7274 283.128 55.951 267.178 74.0773C251.228 92.2036 230.715 100.692 221.754 92.8132L212.777 84.4499L270.547 18.8233L280.09 26.861L280.1 26.8463Z" fill="white"/>
</mask>
<g mask="url(#mask3_2566_2318)">
<path d="M238.157 104.561L237.387 105.438L215.362 86.0478L216.132 85.1705L238.157 104.561ZM217.301 83.8324L216.532 84.7097L238.557 104.1L239.326 103.223L217.301 83.8324ZM218.736 82.2004L217.966 83.0777L239.991 102.468L240.761 101.591L218.736 82.2004ZM220.35 80.3674L219.58 81.2447L241.605 100.635L242.375 99.758L220.35 80.3674ZM222.082 78.4095L221.312 79.2868L243.337 98.6775L244.107 97.8002L222.082 78.4095ZM224.056 76.1748L223.286 77.0521L245.311 96.4427L246.081 95.5654L224.056 76.1748ZM226.292 73.6336L225.522 74.5109L247.547 93.9015L248.317 93.0242L226.292 73.6336ZM228.781 70.8008L228.011 71.6781L250.036 91.0687L250.806 90.1914L228.781 70.8008ZM231.46 67.7523L230.69 68.6296L252.715 88.0203L253.485 87.143L231.46 67.7523ZM234.603 64.1795L233.833 65.0568L255.858 84.4475L256.628 83.5701L234.603 64.1795ZM238.146 60.1459L237.377 61.0232L259.402 80.4139L260.171 79.5366L238.146 60.1459ZM242.02 55.7547L241.25 56.632L263.275 76.0227L264.045 75.1454L242.02 55.7547ZM272.297 21.3621L271.528 22.2394L293.553 41.6301L294.322 40.7528L272.297 21.3621ZM271.128 22.7002L270.358 23.5775L292.383 42.9681L293.153 42.0908L271.128 22.7002ZM269.694 24.3322L268.924 25.2095L290.949 44.6002L291.719 43.7229L269.694 24.3322ZM268.079 26.1652L267.31 27.0425L289.335 46.4331L290.104 45.5558L268.079 26.1652ZM266.348 28.1231L265.578 29.0003L287.603 48.391L288.373 47.5137L266.348 28.1231ZM264.374 30.3578L263.604 31.2351L285.629 50.6258L286.399 49.7485L264.374 30.3578ZM262.137 32.899L261.368 33.7763L283.393 53.1669L284.162 52.2896L262.137 32.899ZM259.649 35.7318L258.879 36.6091L280.904 55.9997L281.673 55.1224L259.649 35.7318ZM256.97 38.7803L256.2 39.6576L278.225 59.0482L278.995 58.1709L256.97 38.7803ZM253.826 42.3531L253.057 43.2304L275.082 62.621L275.851 61.7437L253.826 42.3531ZM250.283 46.3867L249.513 47.264L271.538 66.6546L272.308 65.7773L250.283 46.3867ZM246.41 50.7779L245.64 51.6552L267.665 71.0458L268.435 70.1685L246.41 50.7779Z" fill="url(#paint42_linear_2566_2318)"/>
<path d="M238.405 104.271L237.635 105.148L215.61 85.7577L216.38 84.8804L238.405 104.271ZM217.549 83.5424L216.78 84.4197L238.805 103.81L239.574 102.933L217.549 83.5424ZM218.984 81.9103L218.214 82.7876L240.239 102.178L241.009 101.301L218.984 81.9103ZM220.598 80.0774L219.828 80.9547L241.853 100.345L242.623 99.468L220.598 80.0774ZM222.33 78.1195L221.56 78.9968L243.585 98.3874L244.355 97.5102L222.33 78.1195ZM224.304 75.8847L223.534 76.762L245.559 96.1527L246.329 95.2754L224.304 75.8847ZM226.54 73.3436L225.77 74.2209L247.795 93.6115L248.565 92.7342L226.54 73.3436ZM229.029 70.5108L228.259 71.3881L250.284 90.7787L251.054 89.9014L229.029 70.5108ZM231.708 67.4623L230.938 68.3396L252.963 87.7302L253.733 86.8529L231.708 67.4623ZM234.851 63.8895L234.081 64.7668L256.106 84.1574L256.876 83.2801L234.851 63.8895ZM238.394 59.8559L237.625 60.7332L259.65 80.1238L260.419 79.2465L238.394 59.8559ZM242.268 55.4647L241.498 56.342L263.523 75.7326L264.293 74.8553L242.268 55.4647ZM272.545 21.0721L271.776 21.9494L293.801 41.34L294.57 40.4627L272.545 21.0721ZM271.376 22.4101L270.606 23.2874L292.631 42.6781L293.401 41.8008L271.376 22.4101ZM269.942 24.0422L269.172 24.9195L291.197 44.3101L291.967 43.4328L269.942 24.0422ZM268.327 25.8751L267.558 26.7525L289.583 46.1431L290.352 45.2658L268.327 25.8751ZM266.596 27.833L265.826 28.7103L287.851 48.101L288.621 47.2236L266.596 27.833ZM264.622 30.0678L263.852 30.9451L285.877 50.3357L286.647 49.4584L264.622 30.0678ZM262.385 32.609L261.616 33.4863L283.641 52.8769L284.41 51.9996L262.385 32.609ZM259.897 35.4418L259.127 36.3191L281.152 55.7097L281.922 54.8324L259.897 35.4418ZM257.218 38.4902L256.448 39.3675L278.473 58.7582L279.243 57.8809L257.218 38.4902ZM254.074 42.063L253.305 42.9404L275.33 62.331L276.099 61.4537L254.074 42.063ZM250.531 46.0966L249.761 46.9739L271.786 66.3646L272.556 65.4873L250.531 46.0966ZM246.658 50.4878L245.888 51.3651L267.913 70.7558L268.683 69.8785L246.658 50.4878Z" fill="url(#paint43_linear_2566_2318)"/>
</g>
<path d="M258.335 66.3121C274.294 48.1879 279.973 27.1052 271.021 19.2226C262.068 11.3399 241.874 19.6423 225.916 37.7665C209.957 55.8907 204.278 76.9734 213.23 84.856C222.183 92.7387 242.377 84.4362 258.335 66.3121Z" fill="url(#paint44_linear_2566_2318)"/>
<path d="M257.525 65.6028C272.982 48.0479 278.522 27.6616 269.899 20.0687C261.275 12.4758 241.754 20.5516 226.297 38.1064C210.84 55.6613 205.3 76.0476 213.924 83.6405C222.547 91.2334 242.068 83.1576 257.525 65.6028Z" fill="url(#paint45_linear_2566_2318)"/>
<path d="M270.997 19.1878C262.048 11.3066 241.846 19.6077 225.896 37.7341C209.946 55.8604 204.266 76.9355 213.217 84.8291L221.748 92.8026C230.697 100.684 251.21 92.1953 267.172 74.0666C283.122 55.9403 289.046 34.7291 280.094 26.8356L271.215 19.39C271.139 19.3275 271.073 19.2503 270.994 19.1754L270.997 19.1878Z" fill="url(#paint46_linear_2566_2318)"/>
<path d="M253.389 61.9347C240.888 76.1353 227.174 81.3185 220.844 75.7487C214.514 70.1788 218.809 54.9079 230.426 41.7219C242.043 28.5359 256.642 22.3381 262.971 27.9079C269.301 33.4777 265.903 47.7318 253.389 61.9347Z" fill="#FFF399"/>
<path d="M252.991 61.5865C241.374 74.7725 226.868 81.0552 220.646 75.5804C214.424 70.1055 218.812 54.9195 230.426 41.7211C242.043 28.5351 256.549 22.2523 262.771 27.7272C268.993 33.2021 264.605 48.3881 252.991 61.5865Z" fill="url(#paint47_linear_2566_2318)"/>
<path d="M231.366 42.5446C242.548 29.8388 256.842 23.9296 263.408 28.3773C263.21 28.1455 263.002 27.9285 262.771 27.7286C256.55 22.2537 242.041 28.5241 230.427 41.7225C218.81 54.9085 214.435 70.0921 220.647 75.5817C220.877 75.7817 221.117 75.9669 221.368 76.1373C216.122 70.1949 220.173 55.2651 231.355 42.5593L231.366 42.5446Z" fill="url(#paint48_linear_2566_2318)"/>
<path d="M252.988 61.5872C241.371 74.7732 226.865 81.056 220.643 75.5811C214.421 70.1062 218.809 54.9202 230.424 41.7218C242.04 28.5358 256.546 22.2531 262.768 27.7279C268.99 33.2028 264.602 48.3889 252.988 61.5872Z" fill="url(#paint49_linear_2566_2318)"/>
<g filter="url(#filter8_d_2566_2318)">
<path d="M248.524 38.4825L248.515 38.4951C248.477 38.5639 248.42 38.6382 248.363 38.7114L241.527 47.6298C241.48 47.6719 241.442 47.6647 241.396 47.6674C241.11 47.6438 240.841 47.6142 240.565 47.5781C240.176 47.5358 239.769 47.4996 239.38 47.4573L237.965 47.3141C237.581 47.2712 237.195 47.2312 236.809 47.194C236.346 47.1545 235.884 47.0942 235.421 47.0536C235.033 47.0113 234.634 46.9816 234.238 46.9318C233.914 46.8994 233.6 46.8545 233.285 46.8292C233.258 46.8303 233.232 46.8245 233.211 46.8122C233.201 46.8051 233.201 46.8051 233.202 46.7854L233.876 46.4186C235.166 45.7187 236.439 45.0249 237.729 44.3266C239.104 43.5738 240.489 42.8281 241.865 42.0758C243.136 41.383 244.418 40.6946 245.69 40.0018C246.616 39.4947 247.551 38.994 248.479 38.4859C248.506 38.4683 248.525 38.4629 248.543 38.4388L248.552 38.4459C248.534 38.4503 248.534 38.47 248.524 38.4825V38.4825Z" fill="#EAA728"/>
<path d="M244.454 55.4171L244.453 55.4362L242.284 55.4812L235.471 55.6198C235.447 55.6167 235.423 55.6172 235.397 55.6214C235.37 55.6007 235.398 55.5641 235.408 55.5515L241.353 47.7965C241.381 47.7598 241.418 47.7107 241.457 47.6801C241.504 47.6381 241.521 47.6714 241.539 47.7036C241.601 47.8692 241.673 48.0419 241.734 48.2069C241.92 48.703 242.106 49.1992 242.301 49.6828C242.47 50.1063 242.621 50.5358 242.789 50.9604C242.958 51.3839 243.117 51.8199 243.286 52.2435C243.427 52.6073 243.569 52.9915 243.711 53.3549C243.853 53.7193 243.995 54.1035 244.136 54.4663C244.251 54.7521 244.358 55.0493 244.473 55.334C244.445 55.3706 244.445 55.3903 244.454 55.4171V55.4171Z" fill="#EAA728"/>
<path d="M229.505 63.2912C229.495 63.3038 229.476 63.3092 229.467 63.3218L229.457 63.3147C229.477 63.2896 229.468 63.2628 229.478 63.2306C229.735 61.7205 230.002 60.198 230.261 58.6869C230.529 57.1453 230.797 55.5834 231.064 54.0411C231.322 52.5497 231.58 51.0387 231.837 49.5483C231.909 49.1511 231.971 48.7671 232.043 48.3705C232.053 48.3382 232.054 48.3192 232.063 48.2683C232.091 48.2891 232.091 48.3274 232.09 48.3464C232.403 49.5879 232.705 50.8211 233.017 52.062C233.372 53.493 233.717 54.9158 234.073 56.3474L234.255 57.0753C234.254 57.114 234.234 57.1391 234.216 57.1632L229.646 63.1251C229.598 63.1869 229.551 63.2486 229.505 63.2912V63.2912Z" fill="#EAA728"/>
<path d="M233.172 46.8061L233.181 46.7935C233.606 46.8434 234.032 46.8758 234.457 46.9262C235.012 46.9794 235.558 47.0442 236.113 47.0957C236.529 47.1407 236.963 47.1797 237.38 47.2236C238 47.2867 238.601 47.3541 239.221 47.4172C239.637 47.4606 240.053 47.5049 240.487 47.5439C240.783 47.5735 241.089 47.612 241.385 47.6427C241.412 47.6437 241.45 47.6525 241.477 47.635C241.487 47.6427 241.478 47.6542 241.458 47.6591L235.437 55.5135C235.409 55.5501 235.373 55.5802 235.372 55.6195C235.325 55.643 235.335 55.5911 235.335 55.5714C235.301 55.4468 235.266 55.3223 235.24 55.1846C234.557 52.422 233.873 49.6402 233.189 46.8771C233.186 46.8515 233.18 46.8274 233.171 46.8055L233.172 46.8061Z" fill="#EAA728"/>
<path d="M243.299 56.8815L243.309 56.8892C243.29 56.9132 243.252 56.9241 243.225 56.9411C239.086 58.8559 234.939 60.7822 230.8 62.6954C230.371 62.8963 229.933 63.0901 229.503 63.2904C229.503 63.2707 229.512 63.2592 229.522 63.2467L234.263 57.0619C234.883 57.0473 235.485 57.0372 236.107 57.0238C238.498 56.9718 240.88 56.9324 243.262 56.8733C243.262 56.8919 243.28 56.8875 243.299 56.8821L243.299 56.8815Z" fill="#EAA728"/>
<path d="M241.471 47.659L248.43 38.5806C248.459 38.544 248.469 38.5117 248.515 38.4894C247.176 44.0801 245.846 49.6593 244.499 55.2419C244.488 55.2932 244.478 55.3637 244.449 55.4194C244.368 55.2609 244.315 55.0828 244.254 54.9178C244.174 54.7183 244.094 54.5014 244.014 54.3019C243.971 54.1692 243.908 54.043 243.864 53.9113C243.784 53.6938 243.695 53.4878 243.615 53.2703C243.562 53.1501 243.518 53.0184 243.474 52.8861L243.155 52.0523C243.102 51.9135 243.049 51.7747 242.986 51.6288L242.746 51.0326C242.693 50.9086 242.646 50.7806 242.605 50.6491L242.286 49.8152C242.233 49.6764 242.18 49.5376 242.117 49.3917L241.877 48.7955C241.825 48.6557 241.78 48.5251 241.727 48.3852C241.638 48.1409 241.549 47.8966 241.443 47.6573C241.48 47.6661 241.471 47.659 241.471 47.659V47.659Z" fill="#EAA728"/>
</g>
<defs>
<filter id="filter0_d_2566_2318" x="655.098" y="230.596" width="41.0614" height="37.3874" filterUnits="userSpaceOnUse" color-interpolation-filters="sRGB">
<feFlood flood-opacity="0" result="BackgroundImageFix"/>
<feColorMatrix in="SourceAlpha" type="matrix" values="0 0 0 0 0 0 0 0 0 0 0 0 0 0 0 0 0 0 127 0" result="hardAlpha"/>
<feOffset dy="4.30416"/>
<feGaussianBlur stdDeviation="2.15208"/>
<feColorMatrix type="matrix" values="0 0 0 0 0 0 0 0 0 0 0 0 0 0 0 0 0 0 0.25 0"/>
<feBlend mode="normal" in2="BackgroundImageFix" result="effect1_dropShadow_2566_2318"/>
<feBlend mode="normal" in="SourceGraphic" in2="effect1_dropShadow_2566_2318" result="shape"/>
</filter>
<filter id="filter1_d_2566_2318" x="546.332" y="431.328" width="87.8775" height="87.8472" filterUnits="userSpaceOnUse" color-interpolation-filters="sRGB">
<feFlood flood-opacity="0" result="BackgroundImageFix"/>
<feColorMatrix in="SourceAlpha" type="matrix" values="0 0 0 0 0 0 0 0 0 0 0 0 0 0 0 0 0 0 127 0" result="hardAlpha"/>
<feOffset/>
<feGaussianBlur stdDeviation="9.20791"/>
<feComposite in2="hardAlpha" operator="out"/>
<feColorMatrix type="matrix" values="0 0 0 0 0.980392 0 0 0 0 0.694118 0 0 0 0 0.223529 0 0 0 0.35 0"/>
<feBlend mode="normal" in2="BackgroundImageFix" result="effect1_dropShadow_2566_2318"/>
<feBlend mode="normal" in="SourceGraphic" in2="effect1_dropShadow_2566_2318" result="shape"/>
</filter>
<filter id="filter2_d_2566_2318" x="580.656" y="462.934" width="15.8027" height="25.5458" filterUnits="userSpaceOnUse" color-interpolation-filters="sRGB">
<feFlood flood-opacity="0" result="BackgroundImageFix"/>
<feColorMatrix in="SourceAlpha" type="matrix" values="0 0 0 0 0 0 0 0 0 0 0 0 0 0 0 0 0 0 127 0" result="hardAlpha"/>
<feOffset dy="0.920791"/>
<feComposite in2="hardAlpha" operator="out"/>
<feColorMatrix type="matrix" values="0 0 0 0 0.894118 0 0 0 0 0.494118 0 0 0 0 0.0313726 0 0 0 1 0"/>
<feBlend mode="normal" in2="BackgroundImageFix" result="effect1_dropShadow_2566_2318"/>
<feBlend mode="normal" in="SourceGraphic" in2="effect1_dropShadow_2566_2318" result="shape"/>
</filter>
<filter id="filter3_d_2566_2318" x="196.924" y="485.352" width="57.2857" height="57.2586" filterUnits="userSpaceOnUse" color-interpolation-filters="sRGB">
<feFlood flood-opacity="0" result="BackgroundImageFix"/>
<feColorMatrix in="SourceAlpha" type="matrix" values="0 0 0 0 0 0 0 0 0 0 0 0 0 0 0 0 0 0 127 0" result="hardAlpha"/>
<feOffset/>
<feGaussianBlur stdDeviation="6.00234"/>
<feComposite in2="hardAlpha" operator="out"/>
<feColorMatrix type="matrix" values="0 0 0 0 0.980392 0 0 0 0 0.694118 0 0 0 0 0.223529 0 0 0 0.35 0"/>
<feBlend mode="normal" in2="BackgroundImageFix" result="effect1_dropShadow_2566_2318"/>
<feBlend mode="normal" in="SourceGraphic" in2="effect1_dropShadow_2566_2318" result="shape"/>
</filter>
<filter id="filter4_d_2566_2318" x="219.6" y="506.305" width="10.0391" height="15.9035" filterUnits="userSpaceOnUse" color-interpolation-filters="sRGB">
<feFlood flood-opacity="0" result="BackgroundImageFix"/>
<feColorMatrix in="SourceAlpha" type="matrix" values="0 0 0 0 0 0 0 0 0 0 0 0 0 0 0 0 0 0 127 0" result="hardAlpha"/>
<feOffset dy="0.600234"/>
<feComposite in2="hardAlpha" operator="out"/>
<feColorMatrix type="matrix" values="0 0 0 0 0.894118 0 0 0 0 0.494118 0 0 0 0 0.0313726 0 0 0 1 0"/>
<feBlend mode="normal" in2="BackgroundImageFix" result="effect1_dropShadow_2566_2318"/>
<feBlend mode="normal" in="SourceGraphic" in2="effect1_dropShadow_2566_2318" result="shape"/>
</filter>
<filter id="filter5_d_2566_2318" x="336.705" y="557.417" width="30.0322" height="16.4733" filterUnits="userSpaceOnUse" color-interpolation-filters="sRGB">
<feFlood flood-opacity="0" result="BackgroundImageFix"/>
<feColorMatrix in="SourceAlpha" type="matrix" values="0 0 0 0 0 0 0 0 0 0 0 0 0 0 0 0 0 0 127 0" result="hardAlpha"/>
<feOffset dy="1.25232"/>
<feComposite in2="hardAlpha" operator="out"/>
<feColorMatrix type="matrix" values="0 0 0 0 0.894118 0 0 0 0 0.494118 0 0 0 0 0.0313726 0 0 0 1 0"/>
<feBlend mode="normal" in2="BackgroundImageFix" result="effect1_dropShadow_2566_2318"/>
<feBlend mode="normal" in="SourceGraphic" in2="effect1_dropShadow_2566_2318" result="shape"/>
</filter>
<filter id="filter6_d_2566_2318" x="567.947" y="126.295" width="30.0703" height="50.7572" filterUnits="userSpaceOnUse" color-interpolation-filters="sRGB">
<feFlood flood-opacity="0" result="BackgroundImageFix"/>
<feColorMatrix in="SourceAlpha" type="matrix" values="0 0 0 0 0 0 0 0 0 0 0 0 0 0 0 0 0 0 127 0" result="hardAlpha"/>
<feOffset dy="1.25232"/>
<feComposite in2="hardAlpha" operator="out"/>
<feColorMatrix type="matrix" values="0 0 0 0 0.894118 0 0 0 0 0.494118 0 0 0 0 0.0313726 0 0 0 1 0"/>
<feBlend mode="normal" in2="BackgroundImageFix" result="effect1_dropShadow_2566_2318"/>
<feBlend mode="normal" in="SourceGraphic" in2="effect1_dropShadow_2566_2318" result="shape"/>
</filter>
<filter id="filter7_d_2566_2318" x="65.4141" y="337.063" width="22.5977" height="42.4442" filterUnits="userSpaceOnUse" color-interpolation-filters="sRGB">
<feFlood flood-opacity="0" result="BackgroundImageFix"/>
<feColorMatrix in="SourceAlpha" type="matrix" values="0 0 0 0 0 0 0 0 0 0 0 0 0 0 0 0 0 0 127 0" result="hardAlpha"/>
<feOffset dy="1.25232"/>
<feComposite in2="hardAlpha" operator="out"/>
<feColorMatrix type="matrix" values="0 0 0 0 0.894118 0 0 0 0 0.494118 0 0 0 0 0.0313726 0 0 0 1 0"/>
<feBlend mode="normal" in2="BackgroundImageFix" result="effect1_dropShadow_2566_2318"/>
<feBlend mode="normal" in="SourceGraphic" in2="effect1_dropShadow_2566_2318" result="shape"/>
</filter>
<filter id="filter8_d_2566_2318" x="229.457" y="38.4387" width="19.0947" height="25.7147" filterUnits="userSpaceOnUse" color-interpolation-filters="sRGB">
<feFlood flood-opacity="0" result="BackgroundImageFix"/>
<feColorMatrix in="SourceAlpha" type="matrix" values="0 0 0 0 0 0 0 0 0 0 0 0 0 0 0 0 0 0 127 0" result="hardAlpha"/>
<feOffset dy="0.831652"/>
<feComposite in2="hardAlpha" operator="out"/>
<feColorMatrix type="matrix" values="0 0 0 0 0.894118 0 0 0 0 0.494118 0 0 0 0 0.0313726 0 0 0 1 0"/>
<feBlend mode="normal" in2="BackgroundImageFix" result="effect1_dropShadow_2566_2318"/>
<feBlend mode="normal" in="SourceGraphic" in2="effect1_dropShadow_2566_2318" result="shape"/>
</filter>
<linearGradient id="paint0_linear_2566_2318" x1="663.027" y1="255.057" x2="691.221" y2="237.935" gradientUnits="userSpaceOnUse">
<stop stop-color="#FFBB96"/>
<stop offset="0.23" stop-color="#FFFBC9"/>
<stop offset="0.54" stop-color="#F9B673"/>
<stop offset="0.64" stop-color="#F9B876"/>
<stop offset="0.72" stop-color="#FABE81"/>
<stop offset="0.81" stop-color="#FCC993"/>
<stop offset="0.86" stop-color="#FED2A3"/>
<stop offset="0.97" stop-color="#FFC28C"/>
</linearGradient>
<linearGradient id="paint1_linear_2566_2318" x1="637.789" y1="235.078" x2="664.106" y2="263.107" gradientUnits="userSpaceOnUse">
<stop offset="0.04" stop-color="#FFBA78"/>
<stop offset="0.4" stop-color="#FFC987"/>
<stop offset="1" stop-color="#FEECA8"/>
</linearGradient>
<linearGradient id="paint2_linear_2566_2318" x1="707.045" y1="-155.563" x2="-191.7" y2="106.011" gradientUnits="userSpaceOnUse">
<stop offset="0.04" stop-color="#FFBA78"/>
<stop offset="0.4" stop-color="#FFC987"/>
<stop offset="1" stop-color="#FEECA8"/>
</linearGradient>
<linearGradient id="paint3_linear_2566_2318" x1="-86341.7" y1="-50784.4" x2="-86598.9" y2="-50462" gradientUnits="userSpaceOnUse">
<stop stop-color="#FFBB96"/>
<stop offset="0.23" stop-color="#FFFBC9"/>
<stop offset="0.54" stop-color="#F9B673"/>
<stop offset="0.64" stop-color="#F9B876"/>
<stop offset="0.72" stop-color="#FABE81"/>
<stop offset="0.81" stop-color="#FCC993"/>
<stop offset="0.86" stop-color="#FED2A3"/>
<stop offset="0.97" stop-color="#FFC28C"/>
</linearGradient>
<radialGradient id="paint4_radial_2566_2318" cx="0" cy="0" r="1" gradientUnits="userSpaceOnUse" gradientTransform="translate(703.636 252.676) rotate(71.3785) scale(5.8892 10.284)">
<stop stop-color="#F49587"/>
<stop offset="0.12" stop-color="#BD7368"/>
<stop offset="0.24" stop-color="#8B554D"/>
<stop offset="0.36" stop-color="#603B35"/>
<stop offset="0.48" stop-color="#3E2622"/>
<stop offset="0.61" stop-color="#231513"/>
<stop offset="0.74" stop-color="#0F0908"/>
<stop offset="0.86" stop-color="#040202"/>
<stop offset="1"/>
</radialGradient>
<linearGradient id="paint5_linear_2566_2318" x1="-111337" y1="-64397.4" x2="-111480" y2="-65342.4" gradientUnits="userSpaceOnUse">
<stop stop-color="#FFBB96"/>
<stop offset="0.23" stop-color="#FFFBC9"/>
<stop offset="0.54" stop-color="#F9B673"/>
<stop offset="0.64" stop-color="#F9B876"/>
<stop offset="0.72" stop-color="#FABE81"/>
<stop offset="0.81" stop-color="#FCC993"/>
<stop offset="0.86" stop-color="#FED2A3"/>
<stop offset="0.97" stop-color="#FFC28C"/>
</linearGradient>
<radialGradient id="paint6_radial_2566_2318" cx="0" cy="0" r="1" gradientUnits="userSpaceOnUse" gradientTransform="translate(689.36 253.015) rotate(30) scale(12.7026)">
<stop stop-color="white"/>
<stop offset="1"/>
</radialGradient>
<linearGradient id="paint7_linear_2566_2318" x1="689.942" y1="80.0425" x2="618.844" y2="-65.2341" gradientUnits="userSpaceOnUse">
<stop stop-color="#FFBB96"/>
<stop offset="0.23" stop-color="#FFFBC9"/>
<stop offset="0.54" stop-color="#F9B673"/>
<stop offset="0.64" stop-color="#F9B876"/>
<stop offset="0.72" stop-color="#FABE81"/>
<stop offset="0.81" stop-color="#FCC993"/>
<stop offset="0.86" stop-color="#FED2A3"/>
<stop offset="0.97" stop-color="#FFC28C"/>
</linearGradient>
<linearGradient id="paint8_linear_2566_2318" x1="730.712" y1="-44.9194" x2="682.002" y2="-73.0424" gradientUnits="userSpaceOnUse">
<stop offset="0.04" stop-color="#FFBA78"/>
<stop offset="0.4" stop-color="#FFC987"/>
<stop offset="1" stop-color="#FEECA8"/>
</linearGradient>
<radialGradient id="paint9_radial_2566_2318" cx="0" cy="0" r="1" gradientUnits="userSpaceOnUse" gradientTransform="translate(4972.92 -27380.4) rotate(-150) scale(87.9159 171.429)">
<stop stop-color="#F49587"/>
<stop offset="0.12" stop-color="#BD7368"/>
<stop offset="0.24" stop-color="#8B554D"/>
<stop offset="0.36" stop-color="#603B35"/>
<stop offset="0.48" stop-color="#3E2622"/>
<stop offset="0.61" stop-color="#231513"/>
<stop offset="0.74" stop-color="#0F0908"/>
<stop offset="0.86" stop-color="#040202"/>
<stop offset="1"/>
</radialGradient>
<radialGradient id="paint10_radial_2566_2318" cx="0" cy="0" r="1" gradientUnits="userSpaceOnUse" gradientTransform="translate(25.5107 25.5086) rotate(90) scale(25.5086 25.5107)">
<stop offset="0.015625" stop-color="#FFBD52"/>
<stop offset="1" stop-color="#EF980A"/>
</radialGradient>
<linearGradient id="paint11_linear_2566_2318" x1="611.07" y1="459.761" x2="578.809" y2="498.048" gradientUnits="userSpaceOnUse">
<stop stop-color="#FFEB7A"/>
<stop offset="1" stop-color="#FFD801"/>
</linearGradient>
<radialGradient id="paint12_radial_2566_2318" cx="0" cy="0" r="1" gradientUnits="userSpaceOnUse" gradientTransform="translate(16.6292 16.6287) rotate(90) scale(16.6287 16.6292)">
<stop offset="0.015625" stop-color="#FFBD52"/>
<stop offset="1" stop-color="#EF980A"/>
</radialGradient>
<linearGradient id="paint13_linear_2566_2318" x1="224.054" y1="497.154" x2="234.284" y2="528.135" gradientUnits="userSpaceOnUse">
<stop stop-color="#FFEB7A"/>
<stop offset="1" stop-color="#FFD801"/>
</linearGradient>
<linearGradient id="paint14_linear_2566_2318" x1="396.917" y1="576.381" x2="312.291" y2="535.655" gradientUnits="userSpaceOnUse">
<stop stop-color="#E8A928"/>
<stop offset="0.4" stop-color="#C8690F"/>
<stop offset="0.6" stop-color="#C8690F"/>
<stop offset="0.96" stop-color="#F8C935"/>
</linearGradient>
<linearGradient id="paint15_linear_2566_2318" x1="401.2" y1="565.392" x2="318.378" y2="525.534" gradientUnits="userSpaceOnUse">
<stop offset="0.03" stop-color="#E8B328"/>
<stop offset="0.4" stop-color="#E1800F"/>
<stop offset="0.6" stop-color="#E1800F"/>
<stop offset="0.92" stop-color="#F8D335"/>
</linearGradient>
<linearGradient id="paint16_linear_2566_2318" x1="400.836" y1="565.188" x2="318.014" y2="525.329" gradientUnits="userSpaceOnUse">
<stop stop-color="#D8891B"/>
<stop offset="0.4" stop-color="#B75D0F"/>
<stop offset="0.6" stop-color="#B75D0F"/>
<stop offset="1" stop-color="#E4AF2C"/>
</linearGradient>
<linearGradient id="paint17_linear_2566_2318" x1="343.483" y1="578.94" x2="365.764" y2="539.772" gradientUnits="userSpaceOnUse">
<stop stop-color="#F8E765"/>
<stop offset="1" stop-color="#F2B52D" stop-opacity="0.8"/>
</linearGradient>
<linearGradient id="paint18_linear_2566_2318" x1="343.718" y1="578.45" x2="365.176" y2="540.728" gradientUnits="userSpaceOnUse">
<stop stop-color="#FFFF82"/>
<stop offset="1" stop-color="#FFD83B"/>
</linearGradient>
<linearGradient id="paint19_linear_2566_2318" x1="385.495" y1="536.127" x2="345.563" y2="582.43" gradientUnits="userSpaceOnUse">
<stop offset="0.22" stop-color="#FFF37D" stop-opacity="0"/>
<stop offset="0.67" stop-color="white" stop-opacity="0.7"/>
<stop offset="1" stop-color="#FFF37D" stop-opacity="0"/>
</linearGradient>
<linearGradient id="paint20_linear_2566_2318" x1="346.234" y1="573.303" x2="361.734" y2="546.044" gradientUnits="userSpaceOnUse">
<stop stop-color="#F8E253"/>
<stop offset="1" stop-color="#F7C332"/>
</linearGradient>
<linearGradient id="paint21_linear_2566_2318" x1="353.458" y1="558.286" x2="345.24" y2="572.738" gradientUnits="userSpaceOnUse">
<stop stop-color="#F8C935"/>
<stop offset="1" stop-color="#C8690F"/>
</linearGradient>
<linearGradient id="paint22_linear_2566_2318" x1="368.309" y1="550.462" x2="346.705" y2="575.513" gradientUnits="userSpaceOnUse">
<stop offset="0.22" stop-color="#FFF37D" stop-opacity="0"/>
<stop offset="0.29" stop-color="#FFF381" stop-opacity="0.02"/>
<stop offset="0.37" stop-color="#FFF48D" stop-opacity="0.06"/>
<stop offset="0.44" stop-color="#FFF6A1" stop-opacity="0.14"/>
<stop offset="0.52" stop-color="#FFF9BE" stop-opacity="0.25"/>
<stop offset="0.6" stop-color="#FFFCE2" stop-opacity="0.39"/>
<stop offset="0.64" stop-color="white" stop-opacity="0.5"/>
<stop offset="0.67" stop-color="#FFFDEE" stop-opacity="0.44"/>
<stop offset="0.76" stop-color="#FFF9BE" stop-opacity="0.25"/>
<stop offset="0.85" stop-color="#FFF59A" stop-opacity="0.11"/>
<stop offset="0.91" stop-color="#FFF384" stop-opacity="0.03"/>
<stop offset="0.96" stop-color="#FFF37D" stop-opacity="0"/>
</linearGradient>
<linearGradient id="paint23_linear_2566_2318" x1="554.898" y1="228.26" x2="648.488" y2="95.2345" gradientUnits="userSpaceOnUse">
<stop stop-color="#E8A928"/>
<stop offset="0.4" stop-color="#C8690F"/>
<stop offset="0.6" stop-color="#C8690F"/>
<stop offset="0.96" stop-color="#F8C935"/>
</linearGradient>
<linearGradient id="paint24_linear_2566_2318" x1="572.621" y1="238.816" x2="664.216" y2="108.626" gradientUnits="userSpaceOnUse">
<stop offset="0.03" stop-color="#E8B328"/>
<stop offset="0.4" stop-color="#E1800F"/>
<stop offset="0.6" stop-color="#E1800F"/>
<stop offset="0.92" stop-color="#F8D335"/>
</linearGradient>
<linearGradient id="paint25_linear_2566_2318" x1="573.032" y1="238.229" x2="664.626" y2="108.04" gradientUnits="userSpaceOnUse">
<stop stop-color="#D8891B"/>
<stop offset="0.4" stop-color="#B75D0F"/>
<stop offset="0.6" stop-color="#B75D0F"/>
<stop offset="1" stop-color="#E4AF2C"/>
</linearGradient>
<linearGradient id="paint26_linear_2566_2318" x1="560.5" y1="132.595" x2="625.436" y2="178.298" gradientUnits="userSpaceOnUse">
<stop stop-color="#F8E765"/>
<stop offset="1" stop-color="#F2B52D" stop-opacity="0.8"/>
</linearGradient>
<linearGradient id="paint27_linear_2566_2318" x1="561.282" y1="133.147" x2="623.82" y2="177.162" gradientUnits="userSpaceOnUse">
<stop stop-color="#FFFF82"/>
<stop offset="1" stop-color="#FFD83B"/>
</linearGradient>
<linearGradient id="paint28_linear_2566_2318" x1="624.844" y1="218.712" x2="549.962" y2="139.395" gradientUnits="userSpaceOnUse">
<stop offset="0.22" stop-color="#FFF37D" stop-opacity="0"/>
<stop offset="0.67" stop-color="white" stop-opacity="0.7"/>
<stop offset="1" stop-color="#FFF37D" stop-opacity="0"/>
</linearGradient>
<linearGradient id="paint29_linear_2566_2318" x1="569.486" y1="138.99" x2="614.68" y2="170.786" gradientUnits="userSpaceOnUse">
<stop stop-color="#F8E253"/>
<stop offset="1" stop-color="#F7C332"/>
</linearGradient>
<linearGradient id="paint30_linear_2566_2318" x1="593.448" y1="155.849" x2="569.487" y2="138.991" gradientUnits="userSpaceOnUse">
<stop stop-color="#F8C935"/>
<stop offset="1" stop-color="#C8690F"/>
</linearGradient>
<linearGradient id="paint31_linear_2566_2318" x1="603.877" y1="184.328" x2="563.363" y2="141.417" gradientUnits="userSpaceOnUse">
<stop offset="0.22" stop-color="#FFF37D" stop-opacity="0"/>
<stop offset="0.29" stop-color="#FFF381" stop-opacity="0.02"/>
<stop offset="0.37" stop-color="#FFF48D" stop-opacity="0.06"/>
<stop offset="0.44" stop-color="#FFF6A1" stop-opacity="0.14"/>
<stop offset="0.52" stop-color="#FFF9BE" stop-opacity="0.25"/>
<stop offset="0.6" stop-color="#FFFCE2" stop-opacity="0.39"/>
<stop offset="0.64" stop-color="white" stop-opacity="0.5"/>
<stop offset="0.67" stop-color="#FFFDEE" stop-opacity="0.44"/>
<stop offset="0.76" stop-color="#FFF9BE" stop-opacity="0.25"/>
<stop offset="0.85" stop-color="#FFF59A" stop-opacity="0.11"/>
<stop offset="0.91" stop-color="#FFF384" stop-opacity="0.03"/>
<stop offset="0.96" stop-color="#FFF37D" stop-opacity="0"/>
</linearGradient>
<linearGradient id="paint32_linear_2566_2318" x1="119.568" y1="408.707" x2="64.076" y2="289.009" gradientUnits="userSpaceOnUse">
<stop stop-color="#E8A928"/>
<stop offset="0.4" stop-color="#C8690F"/>
<stop offset="0.6" stop-color="#C8690F"/>
<stop offset="0.96" stop-color="#F8C935"/>
</linearGradient>
<linearGradient id="paint33_linear_2566_2318" x1="134.17" y1="400.539" x2="79.8604" y2="283.393" gradientUnits="userSpaceOnUse">
<stop offset="0.03" stop-color="#E8B328"/>
<stop offset="0.4" stop-color="#E1800F"/>
<stop offset="0.6" stop-color="#E1800F"/>
<stop offset="0.92" stop-color="#F8D335"/>
</linearGradient>
<linearGradient id="paint34_linear_2566_2318" x1="133.925" y1="400.012" x2="79.6156" y2="282.866" gradientUnits="userSpaceOnUse">
<stop stop-color="#D8891B"/>
<stop offset="0.4" stop-color="#B75D0F"/>
<stop offset="0.6" stop-color="#B75D0F"/>
<stop offset="1" stop-color="#E4AF2C"/>
</linearGradient>
<linearGradient id="paint35_linear_2566_2318" x1="54.6374" y1="365.973" x2="113.079" y2="338.891" gradientUnits="userSpaceOnUse">
<stop stop-color="#F8E765"/>
<stop offset="1" stop-color="#F2B52D" stop-opacity="0.8"/>
</linearGradient>
<linearGradient id="paint36_linear_2566_2318" x1="55.339" y1="365.647" x2="111.623" y2="339.565" gradientUnits="userSpaceOnUse">
<stop stop-color="#FFFF82"/>
<stop offset="1" stop-color="#FFD83B"/>
</linearGradient>
<linearGradient id="paint37_linear_2566_2318" x1="141.229" y1="355.698" x2="55.1393" y2="376.134" gradientUnits="userSpaceOnUse">
<stop offset="0.22" stop-color="#FFF37D" stop-opacity="0"/>
<stop offset="0.67" stop-color="white" stop-opacity="0.7"/>
<stop offset="1" stop-color="#FFF37D" stop-opacity="0"/>
</linearGradient>
<linearGradient id="paint38_linear_2566_2318" x1="62.768" y1="362.255" x2="103.433" y2="343.402" gradientUnits="userSpaceOnUse">
<stop stop-color="#F8E253"/>
<stop offset="1" stop-color="#F7C332"/>
</linearGradient>
<linearGradient id="paint39_linear_2566_2318" x1="84.3309" y1="352.255" x2="62.7706" y2="362.25" gradientUnits="userSpaceOnUse">
<stop stop-color="#F8C935"/>
<stop offset="1" stop-color="#C8690F"/>
</linearGradient>
<linearGradient id="paint40_linear_2566_2318" x1="108.57" y1="356.48" x2="61.9942" y2="367.537" gradientUnits="userSpaceOnUse">
<stop offset="0.22" stop-color="#FFF37D" stop-opacity="0"/>
<stop offset="0.29" stop-color="#FFF381" stop-opacity="0.02"/>
<stop offset="0.37" stop-color="#FFF48D" stop-opacity="0.06"/>
<stop offset="0.44" stop-color="#FFF6A1" stop-opacity="0.14"/>
<stop offset="0.52" stop-color="#FFF9BE" stop-opacity="0.25"/>
<stop offset="0.6" stop-color="#FFFCE2" stop-opacity="0.39"/>
<stop offset="0.64" stop-color="white" stop-opacity="0.5"/>
<stop offset="0.67" stop-color="#FFFDEE" stop-opacity="0.44"/>
<stop offset="0.76" stop-color="#FFF9BE" stop-opacity="0.25"/>
<stop offset="0.85" stop-color="#FFF59A" stop-opacity="0.11"/>
<stop offset="0.91" stop-color="#FFF384" stop-opacity="0.03"/>
<stop offset="0.96" stop-color="#FFF37D" stop-opacity="0"/>
</linearGradient>
<linearGradient id="paint41_linear_2566_2318" x1="219.356" y1="90.7932" x2="277.543" y2="24.6861" gradientUnits="userSpaceOnUse">
<stop stop-color="#E8A928"/>
<stop offset="0.4" stop-color="#C8690F"/>
<stop offset="0.6" stop-color="#C8690F"/>
<stop offset="0.96" stop-color="#F8C935"/>
</linearGradient>
<linearGradient id="paint42_linear_2566_2318" x1="228.274" y1="97.5134" x2="285.221" y2="32.8157" gradientUnits="userSpaceOnUse">
<stop offset="0.03" stop-color="#E8B328"/>
<stop offset="0.4" stop-color="#E1800F"/>
<stop offset="0.6" stop-color="#E1800F"/>
<stop offset="0.92" stop-color="#F8D335"/>
</linearGradient>
<linearGradient id="paint43_linear_2566_2318" x1="228.528" y1="97.2218" x2="285.474" y2="32.5242" gradientUnits="userSpaceOnUse">
<stop stop-color="#D8891B"/>
<stop offset="0.4" stop-color="#B75D0F"/>
<stop offset="0.6" stop-color="#B75D0F"/>
<stop offset="1" stop-color="#E4AF2C"/>
</linearGradient>
<linearGradient id="paint44_linear_2566_2318" x1="227.991" y1="39.6274" x2="260.26" y2="68.0404" gradientUnits="userSpaceOnUse">
<stop stop-color="#F8E765"/>
<stop offset="1" stop-color="#F2B52D" stop-opacity="0.8"/>
</linearGradient>
<linearGradient id="paint45_linear_2566_2318" x1="228.376" y1="39.97" x2="259.453" y2="67.3338" gradientUnits="userSpaceOnUse">
<stop stop-color="#FFFF82"/>
<stop offset="1" stop-color="#FFD83B"/>
</linearGradient>
<linearGradient id="paint46_linear_2566_2318" x1="257.566" y1="89.7609" x2="221.917" y2="42.6708" gradientUnits="userSpaceOnUse">
<stop offset="0.22" stop-color="#FFF37D" stop-opacity="0"/>
<stop offset="0.67" stop-color="white" stop-opacity="0.7"/>
<stop offset="1" stop-color="#FFF37D" stop-opacity="0"/>
</linearGradient>
<linearGradient id="paint47_linear_2566_2318" x1="232.452" y1="43.5974" x2="254.911" y2="63.3655" gradientUnits="userSpaceOnUse">
<stop stop-color="#F8E253"/>
<stop offset="1" stop-color="#F7C332"/>
</linearGradient>
<linearGradient id="paint48_linear_2566_2318" x1="244.36" y1="54.0796" x2="232.453" y2="43.5988" gradientUnits="userSpaceOnUse">
<stop stop-color="#F8C935"/>
<stop offset="1" stop-color="#C8690F"/>
</linearGradient>
<linearGradient id="paint49_linear_2566_2318" x1="248.299" y1="70.0211" x2="229.011" y2="44.5447" gradientUnits="userSpaceOnUse">
<stop offset="0.22" stop-color="#FFF37D" stop-opacity="0"/>
<stop offset="0.29" stop-color="#FFF381" stop-opacity="0.02"/>
<stop offset="0.37" stop-color="#FFF48D" stop-opacity="0.06"/>
<stop offset="0.44" stop-color="#FFF6A1" stop-opacity="0.14"/>
<stop offset="0.52" stop-color="#FFF9BE" stop-opacity="0.25"/>
<stop offset="0.6" stop-color="#FFFCE2" stop-opacity="0.39"/>
<stop offset="0.64" stop-color="white" stop-opacity="0.5"/>
<stop offset="0.67" stop-color="#FFFDEE" stop-opacity="0.44"/>
<stop offset="0.76" stop-color="#FFF9BE" stop-opacity="0.25"/>
<stop offset="0.85" stop-color="#FFF59A" stop-opacity="0.11"/>
<stop offset="0.91" stop-color="#FFF384" stop-opacity="0.03"/>
<stop offset="0.96" stop-color="#FFF37D" stop-opacity="0"/>
</linearGradient>
</defs>
</svg>
