<svg width="85" height="45" viewBox="0 0 85 45" fill="none" xmlns="http://www.w3.org/2000/svg">
<path d="M83.5566 9.97066C82.4101 10.1901 81.5436 11.1978 81.5436 12.408C81.5436 13.6183 82.4101 14.626 83.5566 14.8454V16.5935C80.5165 16.8473 78.1277 19.3944 78.1277 22.4995C78.1277 25.6046 80.5165 28.1518 83.5566 28.4056V30.2146C82.4101 30.434 81.5436 31.4417 81.5436 32.652C81.5436 33.8622 82.4101 34.8699 83.5566 35.0893V37.4097C82.4101 37.6291 81.5436 38.6368 81.5436 39.8471C81.5436 41.0574 82.4101 42.0651 83.5566 42.2845V44.4995L0.5 44.4995L0.5 42.2845C1.64642 42.0651 2.51297 41.0574 2.51297 39.8471C2.51297 38.6368 1.64643 37.6291 0.5 37.4097L0.5 35.0893C1.64643 34.8699 2.51297 33.8622 2.51297 32.652C2.51297 31.4417 1.64643 30.434 0.5 30.2146L0.5 28.4056C3.5403 28.1518 5.92891 25.6046 5.92891 22.4995C5.92891 19.3944 3.5403 16.8473 0.5 16.5935L0.5 14.8454C1.64643 14.626 2.51297 13.6183 2.51297 12.408C2.51297 11.1978 1.64643 10.1901 0.5 9.97067L0.5 7.65031C1.64643 7.43092 2.51297 6.4232 2.51297 5.21292C2.51297 4.00266 1.64643 2.99493 0.5 2.77554L0.5 0.499512L83.5566 0.499512V2.77554C82.4101 2.99493 81.5436 4.00266 81.5436 5.21292C81.5436 6.42319 82.4101 7.43092 83.5566 7.65031V9.97066Z" fill="url(#paint0_linear_2206_887)" stroke="#620DED"/>
<defs>
<linearGradient id="paint0_linear_2206_887" x1="37" y1="22.4995" x2="42" y2="22.4995" gradientUnits="userSpaceOnUse">
<stop offset="1" stop-color="#D0C6F1"/>
</linearGradient>
</defs>
</svg>
