<svg width="85" height="45" viewBox="0 0 85 45" fill="none" xmlns="http://www.w3.org/2000/svg">
<path fill-rule="evenodd" clip-rule="evenodd" d="M0.0304995 37.8654C1.12539 37.8654 2.01297 38.7526 2.01297 39.8471C2.01297 40.9415 1.12539 41.8288 0.0304995 41.8288C0.0203149 41.8288 0.0101482 41.8287 0 41.8285L0 44.9995L84.0566 44.9995V41.8285C84.0462 41.8287 84.0365 41.8288 84.0261 41.8288C82.9312 41.8288 82.0436 40.9415 82.0436 39.8471C82.0436 38.7526 82.9312 37.8654 84.0261 37.8654C84.0365 37.8654 84.0462 37.8654 84.0566 37.8656V34.6334C84.0462 34.6336 84.0365 34.6337 84.0261 34.6337C82.9312 34.6337 82.0436 33.7464 82.0436 32.652C82.0436 31.5575 82.9312 30.6702 84.0261 30.6702H84.031L84.0407 30.6703L84.0462 30.6704L84.0566 30.6705V27.9263C81.0585 27.9263 78.6277 25.4966 78.6277 22.4995C78.6277 19.5024 81.0585 17.0727 84.0566 17.0727V14.3895C84.0462 14.3897 84.0365 14.3898 84.0261 14.3898C82.9312 14.3898 82.0436 13.5025 82.0436 12.408C82.0436 11.3136 82.9312 10.4263 84.0261 10.4263C84.0365 10.4263 84.0462 10.4264 84.0566 10.4266V7.19439C84.0511 7.19445 84.0462 7.19451 84.0407 7.19457C84.0359 7.19463 84.031 7.19463 84.0261 7.19463C82.9312 7.19463 82.0436 6.30738 82.0436 5.21293C82.0436 4.11847 82.9312 3.23122 84.0261 3.23122C84.0365 3.23122 84.0462 3.23128 84.0566 3.23146V-0.000489354L0 -0.000489354L0 3.23146C0.0101482 3.23128 0.0203149 3.23122 0.0304995 3.23122C1.12539 3.23122 2.01297 4.11847 2.01297 5.21293C2.01297 6.30738 1.12539 7.19463 0.0304995 7.19463C0.0203149 7.19463 0.0101482 7.19457 0 7.19439L0 10.4266C0.0101482 10.4264 0.0203149 10.4263 0.0304995 10.4263C1.12539 10.4263 2.01297 11.3136 2.01297 12.408C2.01297 13.5025 1.12539 14.3898 0.0304995 14.3898C0.0203149 14.3898 0.0101482 14.3897 0 14.3895L0 17.0727C2.9983 17.0727 5.42891 19.5024 5.42891 22.4995C5.42891 25.4966 2.9983 27.9263 0 27.9263L0 30.6705C0.0101482 30.6703 0.0203149 30.6702 0.0304995 30.6702C1.12539 30.6702 2.01297 31.5575 2.01297 32.652C2.01297 33.7464 1.12539 34.6337 0.0304995 34.6337C0.0203149 34.6337 0.0101482 34.6336 0 34.6334L0 37.8656C0.0101482 37.8654 0.0203149 37.8654 0.0304995 37.8654Z" fill="#E1D8FD"/>
</svg>
