<svg width="82" height="45" viewBox="0 0 82 45" fill="none" xmlns="http://www.w3.org/2000/svg">
<path d="M81.5 9.97292C80.3735 10.197 79.5363 11.211 79.5363 12.4085C79.5363 13.6061 80.3735 14.6201 81.5 14.8442V16.5949C78.5238 16.8544 76.2039 19.4094 76.2039 22.5C76.2039 25.5906 78.5238 28.1456 81.5 28.4051V30.2168C80.3735 30.4409 79.5363 31.4549 79.5363 32.6524C79.5363 33.85 80.3735 34.864 81.5 35.0881V37.4119C80.3735 37.636 79.5363 38.6501 79.5363 39.8476C79.5363 41.0451 80.3735 42.0591 81.5 42.2832V44.5L0.5 44.5L0.5 42.2832C1.62649 42.0591 2.46372 41.0451 2.46372 39.8476C2.46372 38.65 1.62649 37.636 0.5 37.4119L0.5 35.0881C1.62649 34.864 2.46372 33.85 2.46372 32.6524C2.46372 31.4549 1.62649 30.4409 0.5 30.2168L0.5 28.4051C3.47641 28.1456 5.79608 25.5906 5.79608 22.5C5.79608 19.4094 3.47641 16.8544 0.5 16.5949L0.5 14.8442C1.62649 14.6201 2.46372 13.6061 2.46372 12.4085C2.46372 11.211 1.62649 10.197 0.5 9.97292L0.5 7.64904C1.62649 7.42494 2.46372 6.41093 2.46372 5.21342C2.46372 4.01591 1.62649 3.0019 0.5 2.77779L0.5 0.500004L81.5 0.500004V2.77779C80.3735 3.0019 79.5363 4.01591 79.5363 5.21342C79.5363 6.41093 80.3735 7.42494 81.5 7.64904V9.97292Z" fill="#029F08" stroke="#266D04"/>
</svg>
