<svg width="85" height="45" viewBox="0 0 85 45" fill="none" xmlns="http://www.w3.org/2000/svg">
<path d="M83.5566 9.97115C82.4101 10.1905 81.5436 11.1983 81.5436 12.4085C81.5436 13.6188 82.4101 14.6265 83.5566 14.8459V16.594C80.5165 16.8478 78.1277 19.3949 78.1277 22.5C78.1277 25.6051 80.5165 28.1522 83.5566 28.406V30.2151C82.4101 30.4344 81.5436 31.4422 81.5436 32.6524C81.5436 33.8627 82.4101 34.8704 83.5566 35.0898V37.4102C82.4101 37.6296 81.5436 38.6373 81.5436 39.8476C81.5436 41.0578 82.4101 42.0656 83.5566 42.2849V44.5L0.5 44.5L0.5 42.2849C1.64642 42.0656 2.51297 41.0579 2.51297 39.8476C2.51297 38.6373 1.64643 37.6296 0.5 37.4102L0.5 35.0898C1.64643 34.8704 2.51297 33.8627 2.51297 32.6524C2.51297 31.4422 1.64643 30.4344 0.5 30.2151L0.5 28.406C3.5403 28.1523 5.92891 25.6051 5.92891 22.5C5.92891 19.3949 3.5403 16.8477 0.5 16.5939L0.5 14.8459C1.64643 14.6265 2.51297 13.6188 2.51297 12.4085C2.51297 11.1983 1.64643 10.1905 0.5 9.97116L0.5 7.65079C1.64643 7.4314 2.51297 6.42369 2.51297 5.21341C2.51297 4.00314 1.64643 2.99542 0.5 2.77603L0.5 0.5L83.5566 0.5V2.77603C82.4101 2.99542 81.5436 4.00315 81.5436 5.21341C81.5436 6.42368 82.4101 7.43141 83.5566 7.6508V9.97115Z" fill="#9270FF" stroke="#620DED"/>
</svg>
