<svg width="60" height="28" viewBox="0 0 60 28" fill="none" xmlns="http://www.w3.org/2000/svg">
<path d="M59.5 6.04355C58.7091 6.23001 58.0631 6.86847 58.0631 7.72087C58.0631 8.57326 58.7091 9.21173 59.5 9.39818V10.1487C57.3704 10.3661 55.6248 11.9546 55.6248 14C55.6248 16.0454 57.3704 17.6339 59.5 17.8513V18.6398C58.7091 18.8262 58.0631 19.4647 58.0631 20.3171C58.0631 21.1695 58.7091 21.8079 59.5 21.9944V23.1167C58.7091 23.3032 58.0631 23.9416 58.0631 24.794C58.0631 25.6464 58.7092 26.2849 59.5 26.4714V27.5L0.5 27.5L0.5 26.4714C1.29083 26.2849 1.93686 25.6464 1.93686 24.794C1.93686 23.9416 1.29083 23.3032 0.5 23.1167L0.5 21.9944C1.29083 21.8079 1.93686 21.1695 1.93686 20.3171C1.93686 19.4647 1.29083 18.8262 0.5 18.6398V17.8513C2.62968 17.6339 4.37518 16.0454 4.37518 14C4.37518 11.9546 2.62968 10.3661 0.5 10.1487L0.5 9.39818C1.29083 9.21172 1.93686 8.57326 1.93686 7.72087C1.93686 6.86847 1.29083 6.23001 0.5 6.04355L0.5 4.92122C1.29083 4.73476 1.93686 4.0963 1.93686 3.2439C1.93686 2.39151 1.29083 1.75305 0.5 1.56659V0.5L59.5 0.5V1.56659C58.7091 1.75304 58.0631 2.39151 58.0631 3.2439C58.0631 4.09629 58.7091 4.73476 59.5 4.92122V6.04355Z" fill="#23B143" stroke="white"/>
</svg>
